<svg width="22" height="20" viewBox="0 0 22 20" fill="none" xmlns="http://www.w3.org/2000/svg">
<path fill-rule="evenodd" clip-rule="evenodd" d="M20.9375 6.51125C20.5103 6.02713 19.8957 5.74987 19.25 5.75H14V4.25C14 2.17893 12.3211 0.5 10.25 0.5C9.96581 0.499797 9.70592 0.660232 9.57875 0.914375L6.03687 8H2C1.17157 8 0.5 8.67157 0.5 9.5V17.75C0.5 18.5784 1.17157 19.25 2 19.25H18.125C19.2592 19.2504 20.2164 18.4065 20.3581 17.2812L21.4831 8.28125C21.5638 7.64028 21.365 6.99556 20.9375 6.51125ZM2 9.5H5.75V17.75H2V9.5ZM19.9944 8.09375L18.8694 17.0938C18.8221 17.4688 18.5031 17.7501 18.125 17.75H7.25V8.92719L10.6916 2.04312C11.7434 2.25363 12.5003 3.17735 12.5 4.25V6.5C12.5 6.91421 12.8358 7.25 13.25 7.25H19.25C19.4653 7.24993 19.6702 7.34238 19.8127 7.50383C19.9551 7.66527 20.0213 7.88014 19.9944 8.09375Z" fill="#FFD130"/>
</svg>
