<?xml version="1.0" encoding="utf-8"?>
<!-- Generator: Adobe Illustrator 27.5.0, SVG Export Plug-In . SVG Version: 6.00 Build 0)  -->
<svg version="1.1" id="Layer_1" xmlns="http://www.w3.org/2000/svg" xmlns:xlink="http://www.w3.org/1999/xlink" x="0px" y="0px"
	 viewBox="0 0 607.717 400" style="enable-background:new 0 0 607.717 400;" xml:space="preserve">
<g>
	<rect style="fill:#FFFFFF;" width="607.717" height="400"/>
</g>
<g>
	<path style="fill:#E2DFE5;" d="M389.495,81.116h-35.444V69.006c0-0.917,0.743-1.66,1.66-1.66h32.123c0.917,0,1.66,0.743,1.66,1.66
		V81.116z"/>
</g>
<g>
	<path style="fill:#D5CED8;" d="M440.989,87.492H306.277c-1.761,0-3.188-1.427-3.188-3.188c0-1.761,1.427-3.188,3.188-3.188h134.712
		c1.761,0,3.188,1.427,3.188,3.188C444.177,86.064,442.75,87.492,440.989,87.492z"/>
</g>
<g>
	<g>
		<path style="fill:#E2DFE5;" d="M349.051,110.986h-7.981c-1.338,0-2.423-1.085-2.423-2.423V86.667c0-1.338,1.085-2.423,2.423-2.423
			h7.981c1.338,0,2.423,1.085,2.423,2.423v21.896C351.474,109.901,350.389,110.986,349.051,110.986z"/>
	</g>
	<g>
		<rect x="342.029" y="77.07" style="fill:#E2DFE5;" width="5.328" height="11.195"/>
	</g>
	<g>
		<path style="fill:#90A38D;" d="M346.714,79.35h-4.042c-0.987,0-1.786-0.8-1.786-1.786c0-0.987,0.8-1.786,1.786-1.786h4.042
			c0.987,0,1.786,0.8,1.786,1.786C348.5,78.551,347.7,79.35,346.714,79.35z"/>
	</g>
	<g>
		<path style="fill:#FFFFFF;" d="M340.77,96.382c-0.167,0-0.303-0.136-0.303-0.303v-7.19c0-0.167,0.136-0.303,0.303-0.303
			c0.167,0,0.303,0.136,0.303,0.303v7.19C341.072,96.246,340.937,96.382,340.77,96.382z"/>
	</g>
</g>
<g>
	<g>
		<path style="fill:#E2DFE5;" d="M411.404,110.773h-7.08c-5.215,0-9.442-4.228-9.442-9.442v-7.08c0-5.215,4.228-9.442,9.442-9.442
			h7.08c5.215,0,9.442,4.228,9.442,9.442v7.08C420.846,106.545,416.619,110.773,411.404,110.773z"/>
	</g>
	<g>
		<rect x="404.975" y="80.019" style="fill:#E2DFE5;" width="5.778" height="13.25"/>
	</g>
	<g>
		<path style="fill:#B1A7B7;" d="M411.009,82.195h-6.29c-1.259,0-2.28-1.021-2.28-2.28s1.021-2.28,2.28-2.28h6.29
			c1.259,0,2.28,1.021,2.28,2.28S412.268,82.195,411.009,82.195z"/>
	</g>
	<g>
		<path style="fill:#FFFFFF;" d="M397.049,100.322c-0.167,0-0.303-0.136-0.303-0.303v-6.75c0-0.167,0.136-0.303,0.303-0.303
			c0.167,0,0.303,0.136,0.303,0.303v6.75C397.352,100.186,397.216,100.322,397.049,100.322z"/>
	</g>
</g>
<g>
	<g>
		<path style="fill:#FFBC85;" d="M380.961,110.208h-7.08c-5.215,0-9.442-4.228-9.442-9.442v-7.08c0-5.215,4.228-9.442,9.442-9.442
			h7.08c5.215,0,9.442,4.227,9.442,9.442v7.08C390.404,105.981,386.176,110.208,380.961,110.208z"/>
	</g>
	<g>
		<rect x="374.533" y="79.454" style="fill:#FFBC85;" width="5.778" height="13.25"/>
	</g>
	<g>
		<path style="fill:#90A38D;" d="M380.566,81.631h-6.29c-1.259,0-2.28-1.021-2.28-2.28s1.021-2.28,2.28-2.28h6.29
			c1.259,0,2.28,1.021,2.28,2.28S381.826,81.631,380.566,81.631z"/>
	</g>
	<g>
		<path style="fill:#FFFFFF;" d="M366.606,99.757c-0.167,0-0.303-0.136-0.303-0.303v-6.75c0-0.167,0.136-0.303,0.303-0.303
			c0.167,0,0.303,0.136,0.303,0.303v6.75C366.908,99.622,366.773,99.757,366.606,99.757z"/>
	</g>
</g>
<g>
	<path style="fill:#D5CED8;" d="M441.903,116.071H307.191c-1.761,0-3.188-1.427-3.188-3.188c0-1.761,1.427-3.188,3.188-3.188
		h134.712c1.761,0,3.188,1.427,3.188,3.188C445.091,114.644,443.663,116.071,441.903,116.071z"/>
</g>
<g>
	<g>
		<path style="fill:#C7BFCE;" d="M134.495,81.502h36.579V71.306c0-2.505-2.03-4.535-4.535-4.535H139.03
			c-2.505,0-4.535,2.03-4.535,4.535V81.502z"/>
	</g>
	<g>
		<path style="fill:#FFBC85;" d="M177.164,81.502h25.166v-10.97c0-2.077-1.684-3.761-3.762-3.761h-17.643
			c-2.077,0-3.762,1.684-3.762,3.761V81.502z"/>
	</g>
	<g>
		<path style="fill:#DDD7E0;" d="M121.791,87.105h143.865c1.547,0,2.802-1.254,2.802-2.801c0-1.547-1.254-2.802-2.802-2.802H121.791
			V87.105z"/>
	</g>
	<g>
		<path style="fill:#DDD7E0;" d="M120.121,115.684h157.991c1.547,0,2.802-1.254,2.802-2.802c0-1.547-1.254-2.801-2.802-2.801
			H120.121V115.684z"/>
	</g>
	<g>
		<path style="fill:#DDD7E0;" d="M119.127,144.264h171.122c1.547,0,2.802-1.254,2.802-2.801c0-1.547-1.254-2.801-2.802-2.801
			H119.127V144.264z"/>
	</g>
	<g>
		<g>
			<path style="fill:#90A38D;" d="M246.875,92.215c-0.057,3.668,2.869,6.688,6.538,6.746c3.668,0.058,6.689-2.869,6.746-6.538
				c0.058-3.668-2.869-6.688-6.538-6.746C249.952,85.62,246.932,88.547,246.875,92.215z"/>
		</g>
		<g>
			<g>
				<path style="fill:#DDD7E0;" d="M247.527,109.991l9.538,0.031c0.517,0.002,0.951-0.365,1.004-0.848l1.504-13.89
					c0.06-0.555-0.403-1.038-0.997-1.04l-12.456-0.041c-0.595-0.002-1.061,0.478-1.004,1.034l1.414,13.9
					C246.578,109.62,247.01,109.99,247.527,109.991z"/>
			</g>
		</g>
		<g>
			<g>
				<path style="fill:#EEECF1;" d="M249.638,109.998l9.538,0.031c0.517,0.002,0.951-0.365,1.004-0.848l1.504-13.89
					c0.06-0.555-0.403-1.038-0.997-1.04l-12.456-0.04c-0.594-0.002-1.061,0.478-1.004,1.034l1.414,13.899
					C248.689,109.627,249.121,109.997,249.638,109.998z"/>
			</g>
		</g>
	</g>
	<g>
		<g>
			<path style="fill:#DDD7E0;" d="M243.934,138.661h6.712v-12.944c0-1.853-1.502-3.356-3.356-3.356
				c-1.854,0-3.356,1.502-3.356,3.356V138.661z"/>
		</g>
		<g>
			<path style="fill:#DDD7E0;" d="M250.645,138.661h6.712v-12.944c0-1.853-1.503-3.356-3.356-3.356
				c-1.854,0-3.356,1.502-3.356,3.356V138.661z"/>
		</g>
		<g>
			<path style="fill:#DDD7E0;" d="M230.495,138.661h6.712v-12.944c0-1.853-1.503-3.356-3.356-3.356
				c-1.854,0-3.356,1.502-3.356,3.356V138.661z"/>
		</g>
		<g>
			
				<rect x="252.691" y="120.54" transform="matrix(-1 -1.224647e-16 1.224647e-16 -1 508.4435 244.1419)" style="fill:#DDD7E0;" width="3.062" height="3.062"/>
		</g>
		<g>
			
				<rect x="245.758" y="120.54" transform="matrix(-1 -1.224647e-16 1.224647e-16 -1 494.5791 244.1419)" style="fill:#DDD7E0;" width="3.062" height="3.062"/>
		</g>
		<g>
			
				<rect x="232.32" y="120.83" transform="matrix(-1 -1.224647e-16 1.224647e-16 -1 467.7025 244.7213)" style="fill:#DDD7E0;" width="3.062" height="3.062"/>
		</g>
		<g>
			<path style="fill:#DDD7E0;" d="M252.667,121.257h3.109c0.396,0,0.717-0.321,0.717-0.717c0-0.396-0.321-0.717-0.717-0.717h-3.109
				c-0.396,0-0.717,0.321-0.717,0.717C251.95,120.936,252.271,121.257,252.667,121.257z"/>
		</g>
		<g>
			<path style="fill:#DDD7E0;" d="M245.827,121.257h3.109c0.396,0,0.717-0.321,0.717-0.717c0-0.396-0.321-0.717-0.717-0.717h-3.109
				c-0.396,0-0.717,0.321-0.717,0.717C245.11,120.936,245.431,121.257,245.827,121.257z"/>
		</g>
		<g>
			<path style="fill:#DDD7E0;" d="M232.297,121.547h3.109c0.396,0,0.717-0.321,0.717-0.717c0-0.396-0.321-0.717-0.717-0.717h-3.109
				c-0.396,0-0.717,0.321-0.717,0.717C231.58,121.226,231.901,121.547,232.297,121.547z"/>
		</g>
	</g>
	<g>
		<g>
			<path style="fill:#DDD7E0;" d="M143.641,109.939h6.712V96.995c0-1.853-1.503-3.356-3.356-3.356c-1.853,0-3.356,1.503-3.356,3.356
				V109.939z"/>
		</g>
		<g>
			<path style="fill:#DDD7E0;" d="M150.353,109.939h6.712V96.995c0-1.853-1.503-3.356-3.356-3.356c-1.853,0-3.356,1.503-3.356,3.356
				V109.939z"/>
		</g>
		<g>
			<path style="fill:#DDD7E0;" d="M130.203,109.939h6.712V96.995c0-1.853-1.503-3.356-3.356-3.356c-1.853,0-3.356,1.503-3.356,3.356
				V109.939z"/>
		</g>
		<g>
			
				<rect x="152.398" y="91.818" transform="matrix(-1 -1.224647e-16 1.224647e-16 -1 307.8587 186.6987)" style="fill:#DDD7E0;" width="3.062" height="3.062"/>
		</g>
		<g>
			
				<rect x="145.466" y="91.818" transform="matrix(-1 -1.224647e-16 1.224647e-16 -1 293.9945 186.6987)" style="fill:#DDD7E0;" width="3.062" height="3.062"/>
		</g>
		<g>
			
				<rect x="132.028" y="92.108" transform="matrix(-1 -1.224647e-16 1.224647e-16 -1 267.1179 187.2781)" style="fill:#DDD7E0;" width="3.062" height="3.062"/>
		</g>
		<g>
			<path style="fill:#DDD7E0;" d="M152.375,92.535h3.109c0.396,0,0.717-0.321,0.717-0.717c0-0.396-0.321-0.717-0.717-0.717h-3.109
				c-0.396,0-0.717,0.321-0.717,0.717C151.658,92.214,151.979,92.535,152.375,92.535z"/>
		</g>
		<g>
			<path style="fill:#DDD7E0;" d="M145.535,92.535h3.109c0.396,0,0.717-0.321,0.717-0.717c0-0.396-0.321-0.717-0.717-0.717h-3.109
				c-0.396,0-0.717,0.321-0.717,0.717C144.818,92.214,145.139,92.535,145.535,92.535z"/>
		</g>
		<g>
			<path style="fill:#DDD7E0;" d="M132.005,92.825h3.109c0.396,0,0.717-0.321,0.717-0.717c0-0.396-0.321-0.717-0.717-0.717h-3.109
				c-0.396,0-0.717,0.321-0.717,0.717C131.288,92.504,131.608,92.825,132.005,92.825z"/>
		</g>
	</g>
	<g>
		<g>
			<path style="fill:#DDD7E0;" d="M170.081,109.939h6.712V96.995c0-1.853-1.502-3.356-3.356-3.356c-1.853,0-3.356,1.503-3.356,3.356
				V109.939z"/>
		</g>
		<g>
			<path style="fill:#DDD7E0;" d="M176.793,109.939h6.712V96.995c0-1.853-1.503-3.356-3.356-3.356c-1.853,0-3.356,1.503-3.356,3.356
				V109.939z"/>
		</g>
		<g>
			<path style="fill:#DDD7E0;" d="M156.643,109.939h6.712V96.995c0-1.853-1.503-3.356-3.356-3.356c-1.853,0-3.356,1.503-3.356,3.356
				V109.939z"/>
		</g>
		<g>
			
				<rect x="178.838" y="91.818" transform="matrix(-1 -1.224647e-16 1.224647e-16 -1 360.7389 186.6987)" style="fill:#DDD7E0;" width="3.062" height="3.062"/>
		</g>
		<g>
			
				<rect x="171.906" y="91.818" transform="matrix(-1 -1.224647e-16 1.224647e-16 -1 346.8747 186.6987)" style="fill:#DDD7E0;" width="3.062" height="3.062"/>
		</g>
		<g>
			
				<rect x="158.468" y="92.108" transform="matrix(-1 -1.224647e-16 1.224647e-16 -1 319.9981 187.2781)" style="fill:#DDD7E0;" width="3.062" height="3.062"/>
		</g>
		<g>
			<path style="fill:#DDD7E0;" d="M178.815,92.535h3.109c0.396,0,0.717-0.321,0.717-0.717c0-0.396-0.321-0.717-0.717-0.717h-3.109
				c-0.396,0-0.717,0.321-0.717,0.717C178.098,92.214,178.419,92.535,178.815,92.535z"/>
		</g>
		<g>
			<path style="fill:#DDD7E0;" d="M171.975,92.535h3.109c0.396,0,0.717-0.321,0.717-0.717c0-0.396-0.321-0.717-0.717-0.717h-3.109
				c-0.396,0-0.717,0.321-0.717,0.717C171.258,92.214,171.579,92.535,171.975,92.535z"/>
		</g>
		<g>
			<path style="fill:#DDD7E0;" d="M158.445,92.825h3.109c0.396,0,0.717-0.321,0.717-0.717c0-0.396-0.321-0.717-0.717-0.717h-3.109
				c-0.396,0-0.717,0.321-0.717,0.717C157.728,92.504,158.049,92.825,158.445,92.825z"/>
		</g>
	</g>
	<g>
		<g>
			<path style="fill:#DDD7E0;" d="M134.495,138.661h6.712v-12.944c0-1.853-1.503-3.356-3.356-3.356
				c-1.854,0-3.356,1.502-3.356,3.356V138.661z"/>
		</g>
		<g>
			
				<rect x="136.32" y="120.83" transform="matrix(-1 -1.224647e-16 1.224647e-16 -1 275.7025 244.7213)" style="fill:#DDD7E0;" width="3.062" height="3.062"/>
		</g>
		<g>
			<path style="fill:#DDD7E0;" d="M136.297,121.547h3.109c0.396,0,0.717-0.321,0.717-0.717c0-0.396-0.321-0.717-0.717-0.717h-3.109
				c-0.396,0-0.717,0.321-0.717,0.717C135.58,121.226,135.901,121.547,136.297,121.547z"/>
		</g>
	</g>
	<g>
		<g>
			<polygon style="fill:#FFBC85;" points="152.162,138.5 171.495,138.5 169.495,119.167 154.162,119.167 			"/>
		</g>
		<g>
			<path style="fill:#FFBC85;" d="M169.495,119.167l1.339-2.4c0.694-1.244-0.205-2.777-1.63-2.777h-15.155
				c-1.529,0-2.41,1.738-1.505,2.971l1.618,2.206H169.495z"/>
		</g>
		<g>
			<path style="fill:#90A38D;" d="M158.455,133.87h6.747c0.768,0,1.39-0.622,1.39-1.39v-6.747c0-0.768-0.622-1.39-1.39-1.39h-6.747
				c-0.768,0-1.39,0.622-1.39,1.39v6.747C157.065,133.247,157.687,133.87,158.455,133.87z"/>
		</g>
	</g>
	<g>
		<g>
			<polygon style="fill:#FFBC85;" points="222.654,110.187 241.987,110.187 239.987,90.854 224.654,90.854 			"/>
		</g>
		<g>
			<path style="fill:#FFBC85;" d="M239.987,90.854l1.339-2.4c0.695-1.244-0.205-2.777-1.63-2.777h-15.155
				c-1.529,0-2.41,1.738-1.506,2.971l1.618,2.206H239.987z"/>
		</g>
		<g>
			<path style="fill:#90A38D;" d="M228.947,105.556h6.747c0.768,0,1.39-0.622,1.39-1.39v-6.747c0-0.768-0.622-1.39-1.39-1.39h-6.747
				c-0.768,0-1.39,0.622-1.39,1.39v6.747C227.557,104.934,228.179,105.556,228.947,105.556z"/>
		</g>
	</g>
</g>
<g>
	<g>
		<path style="fill:#EEECF1;" d="M496.201,146.423h-39.056c-4.232,0-7.664-3.431-7.664-7.663V75.009
			c0-4.232,3.431-7.663,7.664-7.663h39.056c4.232,0,7.664,3.431,7.664,7.663v63.751
			C503.865,142.992,500.434,146.423,496.201,146.423z"/>
	</g>
	<g>
		<path style="fill:#C4BCC9;" d="M492.311,78.876h-32.739c-0.171,0-0.31-0.138-0.31-0.309s0.139-0.309,0.31-0.309h32.739
			c0.171,0,0.31,0.138,0.31,0.309S492.482,78.876,492.311,78.876z"/>
	</g>
	<g>
		<path style="fill:#C4BCC9;" d="M492.311,85.985h-32.739c-0.171,0-0.31-0.138-0.31-0.309s0.139-0.309,0.31-0.309h32.739
			c0.171,0,0.31,0.138,0.31,0.309S492.482,85.985,492.311,85.985z"/>
	</g>
	<g>
		<path style="fill:#C4BCC9;" d="M492.311,93.948h-32.739c-0.171,0-0.31-0.138-0.31-0.309s0.139-0.309,0.31-0.309h32.739
			c0.171,0,0.31,0.138,0.31,0.309S492.482,93.948,492.311,93.948z"/>
	</g>
	<g>
		<path style="fill:#C4BCC9;" d="M492.311,102.96h-32.739c-0.171,0-0.31-0.138-0.31-0.309s0.139-0.309,0.31-0.309h32.739
			c0.171,0,0.31,0.138,0.31,0.309S492.482,102.96,492.311,102.96z"/>
	</g>
	<g>
		<path style="fill:#C4BCC9;" d="M492.311,110.069h-32.739c-0.171,0-0.31-0.138-0.31-0.309s0.139-0.309,0.31-0.309h32.739
			c0.171,0,0.31,0.138,0.31,0.309S492.482,110.069,492.311,110.069z"/>
	</g>
	<g>
		<path style="fill:#C4BCC9;" d="M492.311,118.032h-32.739c-0.171,0-0.31-0.138-0.31-0.309s0.139-0.309,0.31-0.309h32.739
			c0.171,0,0.31,0.138,0.31,0.309S492.482,118.032,492.311,118.032z"/>
	</g>
</g>
<g>
	<g>
		<path style="fill:#F78F77;" d="M269.241,129.063c0,0,1.615-3.64,7.977-3.212c6.362,0.428,9.493,14.792,9.493,14.792l-7.033,9.004
			c0,0-17.503-7.82-14.253-14.907S269.241,129.063,269.241,129.063z"/>
	</g>
	<g>
		<path style="fill:#AF4D04;" d="M314.994,180.52c0,0-10.657,21.357-19.348,59.871c-7.926,35.129-9.634,64.183-9.634,64.183h34.285
			c0,0,3.814-28.642,4.83-39.975c1.016-11.333,4.396-26.503,4.396-26.503s4.705,65.372,5.827,66.478
			c1.122,1.107,33.942,0.244,33.591-1.257c-0.352-1.501-10.373-109.916-11.261-117.064
			C354.948,164.281,314.994,180.52,314.994,180.52z"/>
	</g>
	<g>
		<path style="fill:#F7B369;" d="M329.524,238.412c-0.164,0-0.302-0.126-0.314-0.291c-0.011-0.142-1.081-14.226-1.392-20.472
			c-0.266-5.341-0.314-8.307-0.321-9.073l-10.926-5.038c-0.158-0.072-0.228-0.26-0.154-0.418c0.072-0.158,0.26-0.23,0.418-0.154
			l11.107,5.121c0.111,0.051,0.184,0.162,0.184,0.285c0,0.029,0.013,3.014,0.323,9.246c0.31,6.238,1.379,20.313,1.39,20.454
			c0.014,0.174-0.117,0.326-0.29,0.339C329.539,238.412,329.531,238.412,329.524,238.412z"/>
	</g>
	<g>
		<path style="fill:#FFAE64;" d="M326.946,129.27l-1.417,3.209l-10.177,24.279l-1.915,27.144c0,0,5.032,5.599,20.798,6.342
			c15.767,0.743,23.128-5.745,23.128-5.745s-5.413-44.882-9.29-50.655c-1.722-2.564-9.024-3.223-9.024-3.223L326.946,129.27z"/>
	</g>
	<g>
		<g>
			<g>
				<g>
					<path style="fill:#F78F77;" d="M326.508,114.025c0,0-5.78-2.234-6.07,2.192c-0.336,5.127,5.772,4.963,5.772,4.963
						L326.508,114.025z"/>
				</g>
			</g>
		</g>
	</g>
	<g>
		<path d="M323.819,118.689c-0.1,0-0.198-0.05-0.256-0.141l-2.014-3.192c-0.089-0.141-0.047-0.328,0.095-0.417
			c0.14-0.087,0.327-0.048,0.417,0.095l2.014,3.192c0.089,0.141,0.047,0.328-0.095,0.417
			C323.931,118.674,323.875,118.689,323.819,118.689z"/>
	</g>
	<g>
		<path d="M321.574,117.789c-0.16,0-0.294-0.126-0.302-0.287c-0.009-0.167,0.119-0.309,0.286-0.317l1.624-0.083
			c0.197-0.03,0.31,0.12,0.317,0.286c0.009,0.167-0.119,0.309-0.286,0.317l-1.624,0.083
			C321.584,117.789,321.579,117.789,321.574,117.789z"/>
	</g>
	<g>
		<g>
			<g>
				<g>
					<path style="fill:#F78F77;" d="M337.198,125.817l0.256,5.979c0,0-2.266,1.323-5.15,1.473c-3.894,0.202-5.289-2.064-5.289-2.064
						l-0.214-7.012L337.198,125.817z"/>
				</g>
			</g>
		</g>
	</g>
	<g>
		<g>
			<g>
				<g>
					<path d="M337.197,125.808c0,0-1.699,4.906-6.146,4.398c-3.584-0.409-4.779-5.43-4.779-5.43L337.197,125.808z"/>
				</g>
			</g>
		</g>
	</g>
	<g>
		<g>
			<g>
				<g>
					<path style="fill:#F78F77;" d="M324.528,109.196c0,0-2.118,11.033,1.185,15.772c3.543,5.082,8.904,3.342,10.876,1.714
						c2.661-2.197,3.12-5.132,3.12-5.132s3.784,0.618,4.93-2.49c1.204-3.264-1.226-5.781-3.111-5.869
						c-1.885-0.088-2.092,0.262-2.092,0.262l0.432-3.457C339.868,109.995,328.002,97.692,324.528,109.196z"/>
				</g>
			</g>
		</g>
	</g>
	<g>
		<path d="M340.213,118.355c-0.081,0-0.163-0.033-0.223-0.098c-0.113-0.123-0.104-0.314,0.018-0.427l2.814-2.588
			c0.123-0.112,0.314-0.106,0.428,0.018c0.113,0.123,0.104,0.314-0.018,0.427l-2.814,2.588
			C340.36,118.329,340.286,118.355,340.213,118.355z"/>
	</g>
	<g>
		<path d="M342.907,118.721c-0.059,0-0.12-0.018-0.173-0.055l-1.757-1.228c-0.137-0.096-0.171-0.284-0.075-0.421
			c0.097-0.136,0.285-0.17,0.421-0.074l1.757,1.228c0.137,0.096,0.171,0.284,0.075,0.421
			C343.096,118.676,343.002,118.721,342.907,118.721z"/>
	</g>
	<g>
		<path d="M334.454,115.528c-0.174-0.004-0.306-0.143-0.302-0.31l0.044-1.845c0.004-0.167,0.161-0.28,0.309-0.295
			c0.167,0.004,0.299,0.143,0.295,0.31l-0.044,1.845C334.752,115.397,334.618,115.528,334.454,115.528z"/>
	</g>
	<g>
		<path d="M327.814,115.707c-0.174-0.004-0.306-0.143-0.302-0.31l0.044-1.845c0.004-0.166,0.161-0.294,0.309-0.295
			c0.167,0.004,0.299,0.143,0.295,0.31l-0.044,1.845C328.111,115.577,327.978,115.707,327.814,115.707z"/>
	</g>
	<g>
		<path d="M330.815,120.158c-0.138,0-0.262-0.094-0.294-0.233c-0.672-2.875,0.17-5.255,0.206-5.355
			c0.057-0.157,0.227-0.239,0.387-0.181c0.157,0.057,0.238,0.23,0.182,0.387c-0.008,0.023-0.815,2.319-0.187,5.012
			c0.038,0.163-0.063,0.325-0.226,0.363C330.861,120.156,330.837,120.158,330.815,120.158z"/>
	</g>
	<g>
		<path d="M326.253,111.979c-0.074,0-0.147-0.027-0.206-0.081c-0.122-0.114-0.129-0.305-0.016-0.427
			c0.71-0.762,2.014-0.889,2.069-0.894c0.165-0.02,0.313,0.107,0.328,0.273c0.016,0.166-0.106,0.313-0.272,0.329
			c-0.012,0.002-1.132,0.113-1.682,0.705C326.415,111.947,326.334,111.979,326.253,111.979z"/>
	</g>
	<g>
		<path d="M335.357,112.164c-0.082,0-0.164-0.032-0.225-0.097c-0.552-0.587-1.67-0.694-1.682-0.695
			c-0.169-0.015-0.294-0.165-0.279-0.333c0.016-0.169,0.161-0.298,0.333-0.28c0.056,0.005,1.363,0.127,2.077,0.887
			c0.116,0.123,0.11,0.318-0.014,0.435C335.508,112.136,335.432,112.164,335.357,112.164z"/>
	</g>
	<g>
		<path d="M340.304,113.44c0,0-1.064,3.416-1.506,3.294c-0.442-0.123,0.109-5.472,1.374-5.73
			C341.435,110.744,340.304,113.44,340.304,113.44z"/>
	</g>
	<g>
		<path d="M339.751,112.959c0,0-3.785-0.373-6.297-2.376c-2.121-1.691-2.917-4.073-2.917-4.073s-1.626-0.233-3.97,1.163
			c-2.344,1.395-2.591,5.805-2.591,5.805s-1.531-5.033,0.077-7.965c1.475-2.69,3.22-2.561,3.22-2.561s-0.521-4.897,6.219-2.907
			c6.739,1.991,8.2,7.855,8.2,7.855s1.666-0.543,1.978,1.594c0.555,3.806-0.059,4.688-0.059,4.688s-0.991-0.969-2.544-0.419
			c-1.553,0.55-1.553,0.55-1.553,0.55L339.751,112.959z"/>
	</g>
	<g>
		<path d="M332.607,123.044c-0.088,0-0.169-0.006-0.241-0.018c-0.165-0.026-0.277-0.181-0.251-0.346
			c0.026-0.164,0.169-0.282,0.345-0.251c0.128,0.02,1.224,0.132,1.575-1.345c0.038-0.162,0.197-0.267,0.364-0.224
			c0.162,0.038,0.263,0.202,0.224,0.364C334.277,122.677,333.26,123.044,332.607,123.044z"/>
	</g>
	<g>
		<path style="fill:#FFAE64;" d="M286.012,136.327l-10.901,15.957c0,0,10.001,17.369,28.173,16.924
			c21.953-0.538,24.764-21.611,24.764-21.611l-1.815-15.211c0,0-6.027,0.531-10.931,4.508
			C311.824,139.713,296.668,144.247,286.012,136.327z"/>
	</g>
	<g>
		<path style="fill:#FFFFFF;" d="M303.469,147.925c-0.08,0-0.167-0.011-0.262-0.036c-0.324-0.086-0.581-0.295-0.763-0.621
			c-0.95-1.7,0.489-6.509,0.551-6.713c0.039-0.13,0.17-0.198,0.295-0.215c0.136,0.003,0.252,0.095,0.286,0.226
			c0.263,1.003,1.516,6.064,0.45,7.127C303.912,147.807,303.731,147.925,303.469,147.925z M303.268,141.868
			c-0.403,1.663-0.833,4.145-0.296,5.106c0.101,0.18,0.228,0.288,0.39,0.33c0.158,0.042,0.21-0.011,0.238-0.039
			C304.111,146.756,303.761,144.101,303.268,141.868z"/>
	</g>
	<g>
		<path style="fill:#FFFFFF;" d="M314.193,166.712c-0.196-0.013-0.327-0.164-0.315-0.338l0.475-6.716
			c0.013-0.173,0.145-0.305,0.337-0.292c0.174,0.013,0.305,0.164,0.292,0.337l-0.475,6.716
			C314.495,166.585,314.357,166.712,314.193,166.712z"/>
	</g>
	<g>
		<path style="fill:#AF4D04;" d="M312.659,185.699c0,0,0.655-24.994,3.007-36.053c2.351-11.059,3.706-15.27,3.706-15.27
			s1.796-1.411,3.441-1.826c1.531-0.386,2.716-0.072,2.716-0.072s-2.357,8.712-3.142,15.143c-0.785,6.431,5.742,14.999,5.742,14.999
			s9.245-8.898,9.665-14.347c0.47-6.102,1.257-17.654,1.257-17.654s1.252,0.06,2.979,0.455c1.727,0.395,3.296,0.826,3.296,0.826
			s-3.203,27.52,2.032,34.494s10.006,3.378,10.006,3.378l0.745,20.522l-38.225,3.404L312.659,185.699z"/>
	</g>
	<g>
		<path style="fill:#FFAB50;" d="M355.591,203.991c-0.062,0-0.123-0.02-0.177-0.058c-5.911-4.269-8.322-11.716-8.346-11.791
			c-0.051-0.159,0.038-0.329,0.197-0.379c0.157-0.051,0.328,0.038,0.379,0.197c0.023,0.073,2.378,7.334,8.123,11.483
			c0.136,0.098,0.166,0.287,0.068,0.422C355.777,203.947,355.685,203.991,355.591,203.991z"/>
	</g>
	<g>
		<g>
			<path style="fill:#BBAFC0;" d="M323.676,154.85l-5.032,0.776l-0.417-2.706c-0.113-0.732,0.389-1.418,1.122-1.531l2.379-0.367
				c0.733-0.113,1.418,0.389,1.531,1.122L323.676,154.85z"/>
		</g>
		<g>
			<path style="fill:#DAD7DD;" d="M328.266,180.555l-6.255,0.965c-1.242,0.191-2.416-0.626-2.666-1.858l-3.933-19.328
				c-0.268-1.318,0.62-2.592,1.949-2.797l8.117-1.251c1.329-0.205,2.559,0.743,2.701,2.08l2.072,19.615
				C330.38,179.23,329.508,180.363,328.266,180.555z"/>
		</g>
		<g>
			<path style="fill:#DAD7DD;" d="M325.247,158.253l-7.076,1.091l-0.539-3.499c-0.064-0.412,0.219-0.798,0.632-0.862l5.582-0.861
				c0.413-0.064,0.799,0.219,0.862,0.632L325.247,158.253z"/>
		</g>
		<g>
			<path style="fill:#FFFFFF;" d="M319.16,171.87c-0.169,0-0.32-0.119-0.355-0.291l-1.986-9.755
				c-0.04-0.196,0.087-0.388,0.283-0.428c0.2-0.041,0.388,0.087,0.428,0.283l1.986,9.755c0.04,0.196-0.087,0.388-0.283,0.428
				C319.208,171.867,319.184,171.87,319.16,171.87z"/>
		</g>
	</g>
	<g>
		<path style="fill:#F78F77;" d="M338.015,164.037c0,0-10.873-4.815-15.931-3.426c-5.058,1.389-9.013,10.748-8.716,11.789
			c0.297,1.042,1.822,1.173,1.822,1.173s-0.503,1.802,0.173,2.662c0.676,0.86,2.381,0.258,2.381,0.258s0.917,2.247,2.704,2.122
			c1.787-0.125,2.852-1.894,2.929-2.857c0.051-0.643,0.472-1.509,0.472-1.509l0.794,0.521c0,0,0.918,2.292,4.921,3.169
			c4.004,0.878,9.63-4.013,9.63-4.013L338.015,164.037z"/>
	</g>
	<g>
		<path d="M315.19,173.875c-0.033,0-0.066-0.005-0.1-0.017c-0.157-0.055-0.241-0.227-0.186-0.385
			c0.078-0.225,1.954-5.554,4.348-7.434c0.129-0.104,0.32-0.08,0.424,0.051c0.103,0.131,0.081,0.321-0.051,0.424
			c-2.254,1.771-4.132,7.104-4.15,7.158C315.432,173.797,315.315,173.875,315.19,173.875z"/>
	</g>
	<g>
		<path d="M317.743,176.795c-0.024,0-0.05-0.003-0.075-0.009c-0.161-0.042-0.259-0.206-0.218-0.368
			c0.06-0.232,1.484-5.691,4.765-7.113c0.154-0.065,0.331,0.004,0.397,0.157c0.066,0.153-0.004,0.331-0.157,0.397
			c-3.008,1.304-4.405,6.654-4.419,6.708C318.001,176.705,317.878,176.795,317.743,176.795z"/>
	</g>
	<g>
		<path style="fill:#F7B369;" d="M326.946,129.27c0,0-1.012,0.292-1.15,0.569c-0.138,0.277-0.267,2.64-0.267,2.64
			s5.598,5.658,6.597,5.519c1-0.138,5.494-5.947,5.633-6.362s-0.181-3.025-0.306-2.9c-0.125,0.126-5.792,3.428-5.792,3.428
			L326.946,129.27z"/>
	</g>
	<g>
		<path style="fill:#FFFFFF;" d="M330.566,136.891c-0.063,0-0.127-0.02-0.181-0.06l-4.313-3.223c-0.134-0.1-0.161-0.29-0.061-0.423
			c0.1-0.134,0.291-0.16,0.423-0.061l4.313,3.223c0.134,0.1,0.161,0.29,0.062,0.423
			C330.748,136.849,330.657,136.891,330.566,136.891z"/>
	</g>
	<g>
		<path style="fill:#F2513B;" d="M275.619,143.442l-5.234,0.216c-1.279,0.053-2.386-0.885-2.544-2.155l-2.415-19.418l13.361-0.55
			l-0.81,19.551C277.923,142.364,276.898,143.389,275.619,143.442z"/>
	</g>
	<g>
		<path style="fill:#BBAFC0;" d="M278.786,121.534c0.025,0.611-2.945,1.229-6.635,1.381c-3.689,0.152-6.701-0.22-6.726-0.83
			c-0.025-0.611,2.945-1.229,6.635-1.381C275.75,120.552,278.761,120.923,278.786,121.534z"/>
	</g>
	<g>
		<path style="fill:#F78F77;" d="M264.905,140.796c0.65,0.479,1.428,0.748,2.226,0.873c2.702,0.422,10.481,0.264,11.502-2.442
			c0.978-2.592-3.346-2.639-3.346-2.639s3.492-0.659,2.228-2.885c-1.055-1.859-3.328-1.539-3.328-1.539s3.566-1.033,1.038-3.203
			c-2.528-2.17-10.525-1.317-12.995-0.026c-2.47,1.291,0.898,3.719,0.898,3.719s-2.48,1.743-1.757,3.235
			c0.765,1.579,3.173,1.154,3.173,1.154S262.563,139.071,264.905,140.796z"/>
	</g>
	<g>
		<path d="M265.425,137.155c-0.163,0-0.298-0.13-0.302-0.294c-0.005-0.167,0.127-0.306,0.294-0.311l9.861-0.264
			c0.187,0.008,0.306,0.127,0.31,0.294c0.005,0.167-0.127,0.306-0.294,0.311l-9.861,0.264
			C265.43,137.155,265.428,137.155,265.425,137.155z"/>
	</g>
	<g>
		<path d="M264.295,132.853c-0.162,0-0.296-0.127-0.302-0.29c-0.006-0.167,0.124-0.307,0.29-0.314l9.892-0.386
			c0.169-0.008,0.308,0.123,0.314,0.29c0.007,0.167-0.123,0.307-0.29,0.314l-9.892,0.386
			C264.303,132.853,264.299,132.853,264.295,132.853z"/>
	</g>
	<g>
		<path style="fill:#FFAE64;" d="M345.325,131.902c0,0,24.235,4.501,27.31,28.823c2.95,23.34-38.18,17.525-38.18,17.525
			l-1.084-17.156l14.738-3.688L345.325,131.902z"/>
	</g>
	<g>
		<path d="M323.848,174.551c-0.06,0-0.12-0.018-0.173-0.054c-0.137-0.095-0.171-0.284-0.075-0.42l0.842-1.211
			c0.095-0.137,0.284-0.171,0.421-0.076c0.137,0.095,0.171,0.284,0.075,0.42l-0.842,1.211
			C324.037,174.506,323.944,174.551,323.848,174.551z"/>
	</g>
	<g>
		<path style="fill:#FFFFFF;" d="M344.96,158.497c-0.126,0-0.239-0.078-0.283-0.198c-0.048-0.129-0.002-0.275,0.111-0.354
			c0.828-0.57,8.164-5.552,10.406-4.664c0.365,0.144,0.605,0.429,0.691,0.824c0.089,0.403-0.001,0.794-0.268,1.162
			c-1.648,2.28-10.262,3.189-10.627,3.227C344.981,158.496,344.97,158.497,344.96,158.497z M354.506,153.769
			c-1.803,0-5.915,2.41-8.321,3.972c2.917-0.4,7.883-1.359,8.943-2.827c0.164-0.226,0.219-0.448,0.168-0.678
			c-0.045-0.2-0.143-0.321-0.322-0.392C354.843,153.793,354.687,153.769,354.506,153.769z"/>
	</g>
</g>
<g>
	<path style="fill:#C4BCC9;" d="M496.863,58.279H121.396c-5.627,0-10.189-4.562-10.189-10.189V33.412
		c0-5.627,4.562-10.189,10.189-10.189h375.467c5.627,0,10.189,4.562,10.189,10.189v14.678
		C507.052,53.717,502.49,58.279,496.863,58.279z"/>
</g>
<g>
	<rect y="345.263" style="fill:#EEECF1;" width="607.717" height="54.737"/>
</g>
<g style="opacity:0.72;">
	<ellipse style="fill:#EEECF1;" cx="311.495" cy="370.912" rx="274.667" ry="4.318"/>
</g>
<g>
	<g>
		<g>
			<path style="fill:#EEECF1;" d="M181.737,183.263h-42.651c-3.502,0-6.341-2.839-6.341-6.341v-14.746
				c0-3.502,2.839-6.341,6.341-6.341h42.651c3.502,0,6.341,2.839,6.341,6.341v14.746
				C188.078,180.424,185.239,183.263,181.737,183.263z"/>
		</g>
		<g>
			<rect x="152.25" y="176.316" style="fill:#EEECF1;" width="14.481" height="26.805"/>
		</g>
	</g>
	<g>
		<path style="fill:#FFFFFF;" d="M152.25,159.88c-0.002,0-12.224-0.085-12.224-0.085c-0.171-0.001-0.309-0.141-0.307-0.311
			c0.001-0.17,0.139-0.307,0.309-0.307c0.002,0,12.224,0.085,12.224,0.085c0.171,0.001,0.309,0.141,0.307,0.311
			C152.558,159.744,152.42,159.88,152.25,159.88z"/>
	</g>
</g>
<g style="opacity:0.72;">
	<ellipse style="fill:#EEECF1;" cx="305.717" cy="352.111" rx="219.111" ry="6.222"/>
</g>
<g>
	<rect x="114.903" y="51.306" style="fill:#D3CCD6;" width="8.652" height="147.757"/>
</g>
<g>
	<rect x="486.985" y="51.306" style="fill:#D3CCD6;" width="8.652" height="147.757"/>
</g>
<g>
	<path style="fill:#C4BCC9;" d="M511.506,352.111H257.439V196.82h254.067c2.203,0,3.989,1.786,3.989,3.989v147.313
		C515.495,350.325,513.709,352.111,511.506,352.111z"/>
</g>
<g>
	<path style="fill:#D5D0D8;" d="M500.535,352.111H102.22c-2.275,0-4.119-2.228-4.119-4.977V212.228
		c0-19.047,12.779-15.408,28.543-15.408h373.89c2.299,0,4.163,2.252,4.163,5.03v145.231
		C504.698,349.859,502.834,352.111,500.535,352.111z"/>
</g>
<g>
	<path style="fill:#FFFFFF;" d="M302.142,351.964c-0.276,0-0.5-0.224-0.5-0.5V198.732c0-0.276,0.224-0.5,0.5-0.5s0.5,0.224,0.5,0.5
		v152.732C302.642,351.74,302.418,351.964,302.142,351.964z"/>
</g>
<g>
	<path style="fill:#FFFFFF;" d="M340.154,351.964c-0.276,0-0.5-0.224-0.5-0.5V198.732c0-0.276,0.224-0.5,0.5-0.5s0.5,0.224,0.5,0.5
		v152.732C340.654,351.74,340.431,351.964,340.154,351.964z"/>
</g>
<g>
	<path style="fill:#FFFFFF;" d="M378.264,352.611c-0.276,0-0.5-0.224-0.5-0.5V198.732c0-0.276,0.224-0.5,0.5-0.5s0.5,0.224,0.5,0.5
		v153.379C378.764,352.388,378.54,352.611,378.264,352.611z"/>
</g>
<g>
	<path style="fill:#FFFFFF;" d="M416.572,351.964c-0.276,0-0.5-0.224-0.5-0.5V198.732c0-0.276,0.224-0.5,0.5-0.5
		c0.276,0,0.5,0.224,0.5,0.5v152.732C417.072,351.74,416.848,351.964,416.572,351.964z"/>
</g>
<g>
	<path style="fill:#FFFFFF;" d="M454.681,352.611c-0.276,0-0.5-0.224-0.5-0.5V198.732c0-0.276,0.224-0.5,0.5-0.5
		c0.276,0,0.5,0.224,0.5,0.5v153.379C455.181,352.388,454.957,352.611,454.681,352.611z"/>
</g>
<g>
	<path style="fill:#FFFFFF;" d="M489.081,352.611c-0.276,0-0.5-0.224-0.5-0.5V198.732c0-0.276,0.224-0.5,0.5-0.5
		c0.276,0,0.5,0.224,0.5,0.5v153.379C489.581,352.388,489.358,352.611,489.081,352.611z"/>
</g>
<g>
	<path style="fill:#FFFFFF;" d="M225.86,352.611c-0.276,0-0.5-0.224-0.5-0.5V198.732c0-0.276,0.224-0.5,0.5-0.5
		c0.276,0,0.5,0.224,0.5,0.5v153.379C226.36,352.388,226.136,352.611,225.86,352.611z"/>
</g>
<g>
	<path style="fill:#FFFFFF;" d="M263.969,352.611c-0.276,0-0.5-0.224-0.5-0.5V198.732c0-0.276,0.224-0.5,0.5-0.5
		c0.276,0,0.5,0.224,0.5,0.5v153.379C264.469,352.388,264.245,352.611,263.969,352.611z"/>
</g>
<g>
	<path style="fill:#FFFFFF;" d="M150.174,352.611c-0.276,0-0.5-0.224-0.5-0.5V198.732c0-0.276,0.224-0.5,0.5-0.5
		c0.276,0,0.5,0.224,0.5,0.5v153.379C150.674,352.388,150.451,352.611,150.174,352.611z"/>
</g>
<g>
	<path style="fill:#FFFFFF;" d="M113.301,352.287c-0.276,0-0.5-0.224-0.5-0.5V198.408c0-0.276,0.224-0.5,0.5-0.5
		c0.276,0,0.5,0.224,0.5,0.5v153.379C113.801,352.064,113.578,352.287,113.301,352.287z"/>
</g>
<g>
	<path style="fill:#FFFFFF;" d="M188.284,352.611c-0.276,0-0.5-0.224-0.5-0.5V198.732c0-0.276,0.224-0.5,0.5-0.5
		c0.276,0,0.5,0.224,0.5,0.5v153.379C188.784,352.388,188.56,352.611,188.284,352.611z"/>
</g>
<g>
	<path style="fill:#D3CCD6;" d="M488.621,58.279H116.687c-5.602,0-10.143-4.541-10.143-10.143V33.365
		c0-5.602,4.541-10.143,10.143-10.143h371.935c5.602,0,10.143,4.541,10.143,10.143v14.771
		C498.764,53.738,494.223,58.279,488.621,58.279z"/>
</g>
<g>
	<g>
		<path style="fill:#EEECF1;" d="M62.304,127.786H15.739c-1.637,0-2.964-1.327-2.964-2.964V92.254c0-1.637,1.327-2.964,2.964-2.964
			h46.565c1.637,0,2.964,1.327,2.964,2.964v32.568C65.268,126.459,63.941,127.786,62.304,127.786z"/>
	</g>
	<g>
		<path style="fill:#BBAFC0;" d="M59.807,95.727v25.622c0,1.295-1.052,2.338-2.338,2.338h-36.64c-1.285,0-2.328-1.043-2.328-2.338
			V95.727c0-1.295,1.043-2.338,2.328-2.338h36.64C58.755,93.389,59.807,94.433,59.807,95.727z"/>
	</g>
	<g>
		<path style="fill:#FFFFFF;" d="M59.807,116.552v4.797c0,1.295-1.052,2.338-2.338,2.338h-36.64c-1.285,0-2.328-1.043-2.328-2.338
			v-5.681l15.917-7.134l11.782,8.494l9.099-4.247L59.807,116.552z"/>
	</g>
</g>
<g>
	<g>
		<path style="fill:#EEECF1;" d="M60.635,170.258h32.274c1.135,0,2.054-0.92,2.054-2.055v-22.573c0-1.135-0.92-2.055-2.054-2.055
			H60.635c-1.135,0-2.055,0.92-2.055,2.055v22.573C58.58,169.339,59.5,170.258,60.635,170.258z"/>
	</g>
	<g>
		<path style="fill:#BBAFC0;" d="M62.365,148.039v17.758c0,0.897,0.729,1.62,1.62,1.62h25.395c0.891,0,1.614-0.723,1.614-1.62
			v-17.758c0-0.897-0.723-1.62-1.614-1.62H63.986C63.095,146.418,62.365,147.141,62.365,148.039z"/>
	</g>
	<g>
		<path style="fill:#FFFFFF;" d="M62.365,162.473v3.325c0,0.897,0.729,1.62,1.62,1.62h25.395c0.891,0,1.614-0.723,1.614-1.62v-3.938
			l-11.032-4.945l-8.166,5.887l-6.307-2.944L62.365,162.473z"/>
	</g>
</g>
<g>
	<g>
		<path style="fill:#EEECF1;" d="M525.896,136.943h32.274c1.135,0,2.055-0.92,2.055-2.055v-22.573c0-1.135-0.92-2.055-2.055-2.055
			h-32.274c-1.135,0-2.055,0.92-2.055,2.055v22.573C523.841,136.023,524.761,136.943,525.896,136.943z"/>
	</g>
	<g>
		<path style="fill:#BBAFC0;" d="M527.626,114.723v17.758c0,0.897,0.729,1.62,1.62,1.62h25.395c0.891,0,1.614-0.723,1.614-1.62
			v-17.758c0-0.897-0.723-1.62-1.614-1.62h-25.395C528.356,113.103,527.626,113.826,527.626,114.723z"/>
	</g>
	<g>
		<path style="fill:#FFFFFF;" d="M527.626,129.157v3.324c0,0.897,0.729,1.62,1.62,1.62h25.395c0.891,0,1.614-0.723,1.614-1.62
			v-3.938l-11.032-4.945l-8.166,5.887l-6.307-2.944L527.626,129.157z"/>
	</g>
</g>
<g>
	<g>
		<rect x="559.651" style="fill:#EEECF1;" width="4.376" height="49.504"/>
	</g>
	<g>
		<path style="fill:#EEECF1;" d="M598.581,63.993h-73.483c0-8.002,6.487-14.489,14.489-14.489h44.505
			C592.094,49.504,598.581,55.991,598.581,63.993L598.581,63.993z"/>
	</g>
	<g>
		<ellipse style="fill:#BBAFC0;" cx="561.839" cy="63.993" rx="36.742" ry="1.61"/>
	</g>
</g>
<g>
	<g>
		<rect x="46.877" style="fill:#EEECF1;" width="4.376" height="49.504"/>
	</g>
	<g>
		<path style="fill:#EEECF1;" d="M85.806,63.993H12.323c0-8.002,6.487-14.489,14.489-14.489h44.505
			C79.319,49.504,85.806,55.991,85.806,63.993L85.806,63.993z"/>
	</g>
	<g>
		<ellipse style="fill:#BBAFC0;" cx="49.065" cy="63.993" rx="36.742" ry="1.61"/>
	</g>
</g>
<g>
	<g>
		<path style="fill:#C7BFCE;" d="M431.055,176.651h-19.194c-0.712,0-1.29-0.577-1.29-1.29c0-0.712,0.577-1.29,1.29-1.29h19.194
			V176.651z"/>
	</g>
	<g>
		<path style="fill:#EEECF1;" d="M462.313,156.759v39.97h-39.74v-39.97c0-1.32,1.07-2.39,2.39-2.39h34.96
			C461.243,154.369,462.313,155.439,462.313,156.759z"/>
	</g>
	<g>
		<path style="fill:#C7BFCE;" d="M462.313,156.759v7.39h-39.74v-7.39c0-1.32,1.07-2.39,2.39-2.39h34.96
			C461.243,154.369,462.313,155.439,462.313,156.759z"/>
	</g>
	<g>
		<path style="fill:#FFFFFF;" d="M458.572,185.69c-0.171,0-0.31-0.138-0.31-0.309v-16.23c0-0.171,0.139-0.309,0.31-0.309
			c0.171,0,0.31,0.138,0.31,0.309v16.23C458.881,185.552,458.742,185.69,458.572,185.69z"/>
	</g>
</g>
<g>
	<path style="fill:#DAD7DD;" d="M521.951,209H89.483c-1.589,0-2.877-1.288-2.877-2.877v-6.514c0-1.589,1.288-2.877,2.877-2.877
		h432.468c1.589,0,2.877,1.288,2.877,2.877v6.514C524.828,207.712,523.54,209,521.951,209z"/>
</g>
<g>
	<g>
		<path style="fill:#EEECF1;" d="M232.661,33.111h-113.5c-0.982,0-1.778-0.796-1.778-1.778c0-0.982,0.796-1.778,1.778-1.778h113.5
			c0.982,0,1.778,0.796,1.778,1.778C234.439,32.315,233.643,33.111,232.661,33.111z"/>
	</g>
	<g>
		<path style="fill:#EEECF1;" d="M232.661,41.75h-113.5c-0.982,0-1.778-0.796-1.778-1.778c0-0.982,0.796-1.778,1.778-1.778h113.5
			c0.982,0,1.778,0.796,1.778,1.778C234.439,40.954,233.643,41.75,232.661,41.75z"/>
	</g>
	<g>
		<path style="fill:#EEECF1;" d="M232.661,50.674h-113.5c-0.982,0-1.778-0.796-1.778-1.778c0-0.982,0.796-1.778,1.778-1.778h113.5
			c0.982,0,1.778,0.796,1.778,1.778C234.439,49.878,233.643,50.674,232.661,50.674z"/>
	</g>
	<g>
		<path style="fill:#EEECF1;" d="M358.962,32.969h-113.5c-0.982,0-1.778-0.796-1.778-1.778c0-0.982,0.796-1.778,1.778-1.778h113.5
			c0.982,0,1.778,0.796,1.778,1.778C360.74,32.173,359.944,32.969,358.962,32.969z"/>
	</g>
	<g>
		<path style="fill:#EEECF1;" d="M358.962,41.608h-113.5c-0.982,0-1.778-0.796-1.778-1.778c0-0.982,0.796-1.778,1.778-1.778h113.5
			c0.982,0,1.778,0.796,1.778,1.778C360.74,40.812,359.944,41.608,358.962,41.608z"/>
	</g>
	<g>
		<path style="fill:#EEECF1;" d="M358.962,50.532h-113.5c-0.982,0-1.778-0.796-1.778-1.778c0-0.982,0.796-1.778,1.778-1.778h113.5
			c0.982,0,1.778,0.796,1.778,1.778C360.74,49.736,359.944,50.532,358.962,50.532z"/>
	</g>
	<g>
		<path style="fill:#EEECF1;" d="M485.06,32.969h-113.5c-0.982,0-1.778-0.796-1.778-1.778c0-0.982,0.796-1.778,1.778-1.778h113.5
			c0.982,0,1.778,0.796,1.778,1.778C486.838,32.173,486.042,32.969,485.06,32.969z"/>
	</g>
	<g>
		<path style="fill:#EEECF1;" d="M485.06,41.608h-113.5c-0.982,0-1.778-0.796-1.778-1.778c0-0.982,0.796-1.778,1.778-1.778h113.5
			c0.982,0,1.778,0.796,1.778,1.778C486.838,40.812,486.042,41.608,485.06,41.608z"/>
	</g>
	<g>
		<path style="fill:#EEECF1;" d="M485.06,50.532h-113.5c-0.982,0-1.778-0.796-1.778-1.778c0-0.982,0.796-1.778,1.778-1.778h113.5
			c0.982,0,1.778,0.796,1.778,1.778C486.838,49.736,486.042,50.532,485.06,50.532z"/>
	</g>
</g>
<g>
	<g>
		<g>
			<path style="fill:#B1A7B7;" d="M350.939,370.983c-0.055,0-0.108-0.003-0.164-0.01c-0.718-0.09-1.228-0.744-1.139-1.463
				l14.268-114.604c0.09-0.719,0.745-1.23,1.463-1.139c0.718,0.09,1.227,0.744,1.139,1.463l-14.269,114.604
				C352.154,370.498,351.59,370.983,350.939,370.983z"/>
		</g>
		<g>
			<path style="fill:#B1A7B7;" d="M414.996,370.985c-0.652,0-1.217-0.486-1.3-1.15L399.428,255.23
				c-0.09-0.719,0.421-1.374,1.14-1.464c0.707-0.088,1.374,0.42,1.464,1.14L416.3,369.511c0.09,0.719-0.421,1.374-1.14,1.464
				C415.106,370.981,415.051,370.985,414.996,370.985z"/>
		</g>
		<g>
			<path style="fill:#D1CCD6;" d="M404.485,258.103h-48.439c-2.824,0-5.113-2.289-5.113-5.113c0-2.824,2.289-5.113,5.113-5.113
				h48.439c2.824,0,5.113,2.289,5.113,5.113C409.598,255.814,407.309,258.103,404.485,258.103z"/>
		</g>
		<g>
			<path style="fill:#E2DFE5;" d="M409.959,258.103H361.52c-2.824,0-5.113-2.289-5.113-5.113c0-2.824,2.289-5.113,5.113-5.113
				h48.439c2.824,0,5.113,2.289,5.113,5.113C415.072,255.814,412.783,258.103,409.959,258.103z"/>
		</g>
		<g>
			<path style="fill:#B1A7B7;" d="M404.513,288.959h-43.091c-0.724,0-1.311-0.587-1.311-1.311c0-0.724,0.587-1.311,1.311-1.311
				h43.091c0.724,0,1.311,0.587,1.311,1.311C405.823,288.372,405.236,288.959,404.513,288.959z"/>
		</g>
		<g>
			<path style="fill:#B1A7B7;" d="M355.464,334.622c-0.713,0-1.297-0.57-1.311-1.286c-0.013-0.724,0.563-1.321,1.286-1.335
				l55.384-1.037c0.727-0.005,1.321,0.563,1.335,1.286c0.013,0.724-0.563,1.321-1.286,1.335l-55.384,1.037
				C355.481,334.622,355.472,334.622,355.464,334.622z"/>
		</g>
	</g>
	<g>
		<g>
			<g>
				<polygon style="fill:#F78F77;" points="404.544,319.678 403.33,312.066 421.34,306.991 424.99,317.392 410.677,323.735 				"/>
			</g>
		</g>
		<g>
			<g>
				<path style="fill:#AF4D04;" d="M451.894,334.754c0.425-0.08,0.684-0.517,0.579-0.959c-0.5-2.095-2.169-7.935-5.684-10.265
					c-4.32-2.864-13.02-3.641-16.291-5.529c-3.272-1.888-7.112-6.662-8.918-5.624c-1.807,1.038-5.042,5.537-10.175,5.19
					s-7.566-1.455-8.854-0.15c-1.288,1.305-0.91,18.599-0.254,19.595c0.657,0.996,7.765-0.332,8.401-0.199
					c0.636,0.133,2.122-4.068,3.338-3.514c1.216,0.554,2.78,2.405,4.57,3.199C420.276,337.239,446.806,335.713,451.894,334.754z"/>
			</g>
		</g>
		<g>
			<path style="fill:#FFFFFF;" d="M424.281,320.412c-0.111,0-0.218-0.063-0.271-0.169c-0.074-0.149-0.013-0.331,0.137-0.404
				l5.178-2.563c0.151-0.073,0.331-0.013,0.404,0.137c0.074,0.149,0.013,0.331-0.137,0.404l-5.178,2.563
				C424.372,320.401,424.326,320.412,424.281,320.412z"/>
		</g>
		<g>
			<path style="fill:#FFFFFF;" d="M430.429,322.425c-0.106,0-0.21-0.057-0.265-0.157c-0.081-0.147-0.027-0.33,0.119-0.41
				l4.104-2.255c0.145-0.078,0.33-0.028,0.41,0.119c0.081,0.146,0.027,0.33-0.119,0.41l-4.103,2.255
				C430.529,322.412,430.479,322.425,430.429,322.425z"/>
		</g>
		<g>
			<path style="fill:#FFA63B;" d="M394.097,230.988c0,0,34.421,17.459,43.066,34.841c8.645,17.382-14.282,41.652-14.282,41.652
				l-15.277,5.16l-25.969-80.311L394.097,230.988z"/>
		</g>
		<g>
			<g>
				<polygon style="fill:#F78F77;" points="420.302,340.182 423.697,350.712 404.915,356.167 402.279,344.552 				"/>
			</g>
		</g>
		<g>
			<g>
				<path style="fill:#AF4D04;" d="M447.721,375.049c0.431,0.008,0.778-0.365,0.771-0.816c-0.035-2.138-0.401-8.153-3.322-11.126
					c-3.589-3.654-11.893-6.161-14.671-8.656c-2.779-2.495-5.488-7.91-7.471-7.265c-1.983,0.645-6.103,4.37-11.027,2.999
					c-4.924-1.371-7.054-2.939-8.589-1.929c-1.536,1.01-4.896,17.904-4.472,19.004c0.425,1.101,7.632,1.241,8.223,1.498
					c0.59,0.258,2.943-3.529,4.008-2.745c1.065,0.784,2.188,2.899,3.761,4.031C416.398,371.1,442.56,374.957,447.721,375.049z"/>
			</g>
		</g>
		<g>
			<g>
				<path style="fill:#FFA63B;" d="M408.632,276.114l-19.423-42.774l-25.942-3.464c0,0-4.301,12.965-1.013,24.217
					c3.287,11.252,31.979,92.236,32.739,93.038c0.761,0.802,31.214-7.282,32.703-9.185
					C429.185,336.044,408.632,276.114,408.632,276.114z"/>
			</g>
		</g>
		<g>
			<path style="fill:#FFFFFF;" d="M423.714,355.585c-0.111,0-0.219-0.063-0.271-0.17c-0.073-0.15-0.012-0.331,0.139-0.404
				l5.189-2.537c0.15-0.07,0.331-0.012,0.404,0.139c0.073,0.15,0.012,0.331-0.139,0.404l-5.189,2.537
				C423.804,355.574,423.759,355.585,423.714,355.585z"/>
		</g>
		<g>
			<path style="fill:#FFFFFF;" d="M428.119,358.2c-0.107,0-0.211-0.058-0.266-0.158c-0.08-0.147-0.025-0.33,0.121-0.41l4.115-2.233
				c0.147-0.078,0.331-0.024,0.41,0.121c0.08,0.147,0.025,0.33-0.121,0.41l-4.115,2.233
				C428.218,358.188,428.168,358.2,428.119,358.2z"/>
		</g>
		<g>
			<path style="fill:#AF4D04;" d="M366.179,249.646c-0.148,0-0.277-0.109-0.299-0.26c-0.023-0.166,0.091-0.318,0.256-0.342
				c5.859-0.833,7.186-8.142,7.199-8.215c0.028-0.164,0.189-0.275,0.349-0.247c0.165,0.028,0.275,0.185,0.247,0.349
				c-0.014,0.078-1.412,7.816-7.709,8.711C366.207,249.645,366.193,249.646,366.179,249.646z"/>
		</g>
		<g>
			<path style="fill:#AF4D04;" d="M417.348,307.783c-0.121,0-0.234-0.073-0.281-0.192l-23.136-59.051
				c-0.037-0.095-0.024-0.201,0.034-0.284l3.564-5.054c0.096-0.139,0.286-0.168,0.421-0.073c0.137,0.097,0.169,0.285,0.073,0.421
				l-3.471,4.921l23.076,58.899c0.061,0.155-0.016,0.331-0.171,0.392C417.422,307.776,417.385,307.783,417.348,307.783z"/>
		</g>
		<g>
			<path style="fill:#AF4D04;" d="M406.153,278.219c-0.107,0-0.205-0.057-0.26-0.15c-0.061-0.104-0.056-0.233,0.015-0.331
				c0.581-0.801,5.77-7.783,8.462-7.359c0.634,0.107,1.081,0.574,1.33,1.392c0.278,0.912,0.161,1.772-0.348,2.557
				c-1.92,2.958-8.867,3.853-9.162,3.889C406.177,278.218,406.165,278.219,406.153,278.219z M414.085,270.961
				c-1.882,0-5.517,4.262-7.251,6.545c1.824-0.31,6.586-1.312,8.011-3.508c0.413-0.637,0.503-1.308,0.276-2.052
				c-0.179-0.588-0.458-0.905-0.852-0.971C414.21,270.966,414.149,270.961,414.085,270.961z"/>
		</g>
		<g>
			<path style="fill:#F78F77;" d="M438.799,197.946c0,0-4.418,0.326-7.443,0.413c-3.024,0.088-1.582,14.489-1.582,14.489
				s9.326-2.528,16.528-7.764C453.505,199.847,438.799,197.946,438.799,197.946z"/>
		</g>
		<g>
			<path style="fill:#507849;" d="M442.487,212.848c0,0-19.182,9.3-32.203,7.409c-13.441-1.951-19.144-7.615-19.144-7.615
				l2.114-27.7c0,0,20.059,9.095,27.575,10.636c7.515,1.542,17.971-0.898,17.971-0.898L442.487,212.848z"/>
		</g>
		<g>
			<g>
				<path d="M390.604,167.94c0,0,2.055-4.531,1.669-6.516s-3.79-8.524-14.291-5.556c-7.829,2.213-8.648,12.853-7.037,16.439
					c4.15,9.234,12.532,4.841,12.532,4.841S396.863,173.076,390.604,167.94z"/>
			</g>
		</g>
		<g>
			<g>
				<path style="fill:#507849;" d="M360.08,233.919c0,0,0.023-39.992,2.385-42.697c7.285-8.346,24.764-11.148,33.277-4.795
					c5.328,3.976,4.542,15.991,4.293,33.831c-0.14,10.039-0.533,13.662-0.533,13.662H360.08z"/>
			</g>
		</g>
		<g>
			<g>
				<g>
					<g>
						<g>
							<path style="fill:#F78F77;" d="M389.323,178.551l0.009,0.199l0.034,3.757l0.039,2.946c0,0,0.288,0.67-3.146,0.632
								c-4.602-0.068-6.187-1.959-6.187-1.959l-0.566-6.88l1.404,0.19L389.323,178.551z"/>
						</g>
					</g>
				</g>
			</g>
		</g>
		<g>
			<g>
				<g>
					<g>
						<g>
							<path d="M389.332,178.75l0.034,3.757c-2.243-0.151-6.35-0.897-8.177-4.314c-0.141-0.278-0.238-0.53-0.277-0.742l8.403,1.242
								L389.332,178.75z"/>
						</g>
					</g>
				</g>
			</g>
		</g>
		<g>
			<g>
				<g>
					<g>
						<g>
							<path style="fill:#F78F77;" d="M389.822,160.731c0,0,4.789,9.531,3.547,15.097c-1.242,5.566-6.284,4.971-9.33,4.072
								c-3.046-0.899-4.532-2.658-4.532-2.658s-2.741,1.097-4.748-1.399c-2.007-2.496-1.018-5.54,0.54-6.308
								c1.558-0.769,3.515,0.28,3.515,0.28l-1.638-2.757C377.176,167.058,382.652,152.307,389.822,160.731z"/>
						</g>
					</g>
				</g>
			</g>
		</g>
		<g>
			<g>
				<path d="M378.814,169.814c0,0,4.158-2.385,5.555-5.526c1.397-3.141,1.382-4.683,1.382-4.683s0.719,1.983,2.295,2.384
					c1.576,0.4,2.544,0.408,2.544,0.408l1.126,2.814l-0.636-5.429c0,0-4.316-2.051-4.88-2.025c-0.563,0.027-7.944,0.273-8.335,0.721
					c-0.391,0.447-2.372,6.075-2.372,6.075l-0.038,2.502L378.814,169.814z"/>
			</g>
		</g>
		<g>
			<g>
				<path style="fill:#F78F77;" d="M393.635,224.17c0,0,1.687-0.065,3.882-0.643c2.195-0.578,10.556,0.494,13.429,0.839
					c2.873,0.345,9.642,4.498,8.712,5.358c-0.93,0.861-7.455-0.959-7.455-0.959s5.028,5.196,4.132,6.126
					c-0.895,0.93-2.859-0.317-2.859-0.317s1.591,1.552-0.05,2.037c-1.641,0.485-7.551-4.212-7.551-4.212s2.563,4.765,1.427,5.204
					c-1.137,0.439-5.181-3.959-5.181-3.959s-5.543,3.685-8.609,0.65c-3.066-3.035-3.756-5.361-3.756-5.361L393.635,224.17z"/>
			</g>
		</g>
		<g>
			<g>
				<path style="fill:#507849;" d="M367.963,186.883c0,0-18.677,8.695-15.546,35.152c2.169,18.328,42.772,14.613,42.772,14.613
					l0.553-16.522c0,0-21.2-5.755-22.846-6.652C369.716,211.74,367.963,186.883,367.963,186.883z"/>
			</g>
		</g>
		<g>
			<path style="fill:#F7C537;" d="M393.513,220.56c-0.043,0-0.086-0.01-0.127-0.028c-0.117-0.055-11.854-5.467-23.844-7.591
				c-0.164-0.029-0.274-0.186-0.245-0.351c0.029-0.164,0.186-0.274,0.351-0.245c12.069,2.139,23.875,7.583,23.992,7.638
				c0.151,0.07,0.218,0.25,0.147,0.401C393.736,220.494,393.627,220.56,393.513,220.56z"/>
		</g>
		<g>
			<path style="fill:#F7C537;" d="M377.207,214.892c-0.058,0-0.115-0.017-0.166-0.05c-1.324-0.868-5.634-3.807-5.451-5.193
				c0.027-0.208,0.152-0.485,0.59-0.629c2.274-0.751,4.997,4.804,5.3,5.439c0.059,0.122,0.028,0.268-0.073,0.357
				C377.35,214.866,377.279,214.892,377.207,214.892z M372.617,209.555c-0.086,0-0.169,0.013-0.249,0.039
				c-0.168,0.055-0.176,0.114-0.179,0.134c-0.079,0.603,1.977,2.386,4.207,3.947C375.331,211.741,373.748,209.555,372.617,209.555z"
				/>
		</g>
		<g>
			<path style="fill:#F7C537;" d="M386.624,186.383c-1.99,0-4.6-0.48-7.287-2.319c-0.138-0.094-0.173-0.283-0.078-0.42
				c0.096-0.139,0.282-0.172,0.42-0.079c5.222,3.575,10.27,1.708,10.32,1.689c0.152-0.06,0.331,0.018,0.391,0.174
				c0.06,0.156-0.018,0.331-0.174,0.391C390.106,185.86,388.702,186.383,386.624,186.383z"/>
		</g>
		<g>
			<path style="fill:#F7C537;" d="M400.034,222.086c-0.167,0-0.303-0.136-0.303-0.303v-9.141c0-0.052,0.015-0.104,0.04-0.149
				c0.015-0.025,1.453-2.614,1.45-6.908c-0.001-4.311-2.915-9.809-2.944-9.864c-0.079-0.148-0.023-0.331,0.124-0.409
				c0.147-0.078,0.33-0.023,0.409,0.124c0.123,0.23,3.015,5.688,3.017,10.149c0.002,4.113-1.245,6.671-1.49,7.135v9.064
				C400.337,221.95,400.201,222.086,400.034,222.086z"/>
		</g>
		<g>
			<path d="M387.32,176.713c-0.054,0-0.108-0.002-0.164-0.008c-1.207-0.123-2.232-1.816-2.276-1.888
				c-0.061-0.102-0.057-0.23,0.012-0.328c0.067-0.098,0.186-0.148,0.303-0.125l3.5,0.647c0.086,0.016,0.16,0.068,0.205,0.142
				c0.044,0.075,0.055,0.165,0.028,0.247C388.778,175.872,388.255,176.713,387.32,176.713z M385.819,175.095
				c0.372,0.455,0.9,0.958,1.398,1.009c0.492,0.045,0.817-0.292,0.983-0.568L385.819,175.095z"/>
		</g>
		<g>
			<path d="M378.962,174.539c-0.075,0-0.15-0.028-0.209-0.084l-3.082-2.947c-0.12-0.115-0.125-0.307-0.01-0.427
				c0.116-0.121,0.308-0.124,0.428-0.009l3.082,2.947c0.12,0.115,0.125,0.307,0.01,0.427
				C379.121,174.508,379.041,174.539,378.962,174.539z"/>
		</g>
		<g>
			<path d="M375.682,173.84c-0.153,0-0.284-0.116-0.301-0.271c-0.018-0.166,0.103-0.314,0.27-0.332l2.3-0.239
				c0.18-0.014,0.315,0.104,0.332,0.27c0.018,0.166-0.103,0.314-0.27,0.332l-2.3,0.239
				C375.702,173.84,375.692,173.84,375.682,173.84z"/>
		</g>
		<g>
			<path d="M384.008,165.288c-0.134,0-0.257-0.09-0.292-0.226c-0.043-0.162,0.054-0.327,0.215-0.369l2.419-0.635
				c0.164-0.044,0.327,0.054,0.369,0.216c0.043,0.162-0.054,0.327-0.215,0.369l-2.419,0.635
				C384.059,165.285,384.033,165.288,384.008,165.288z"/>
		</g>
		<g>
			<path d="M391.371,164.653h-1.813c-0.167,0-0.303-0.135-0.303-0.302c0-0.167,0.136-0.302,0.303-0.302h1.813
				c0.167,0,0.303,0.135,0.303,0.302C391.674,164.518,391.538,164.653,391.371,164.653z"/>
		</g>
		<g>
			<path d="M390.465,172.488c-0.034,0-0.069-0.006-0.104-0.019c-0.156-0.058-0.236-0.231-0.18-0.388
				c0.717-1.952-1.7-3.839-1.725-3.858c-0.133-0.102-0.157-0.292-0.056-0.424c0.102-0.133,0.291-0.157,0.423-0.056
				c0.115,0.087,2.795,2.176,1.926,4.546C390.704,172.413,390.588,172.488,390.465,172.488z"/>
		</g>
		<g>
			<path d="M385.467,169.54c-0.145,0-0.272-0.103-0.298-0.25l-0.327-1.86c-0.018-0.101,0.017-0.204,0.092-0.274l0.911-0.846
				c0.122-0.114,0.314-0.107,0.428,0.016c0.113,0.122,0.106,0.313-0.016,0.427l-0.791,0.734l0.299,1.698
				c0.028,0.164-0.081,0.321-0.245,0.35C385.501,169.539,385.484,169.54,385.467,169.54z"/>
		</g>
		<g>
			<path d="M391.242,168.893c-0.145,0-0.272-0.103-0.298-0.25l-0.327-1.86c-0.018-0.101,0.018-0.204,0.093-0.274l0.912-0.846
				c0.121-0.114,0.314-0.107,0.427,0.016c0.113,0.123,0.106,0.314-0.017,0.427l-0.791,0.734l0.299,1.698
				c0.028,0.164-0.081,0.321-0.245,0.35C391.277,168.891,391.259,168.893,391.242,168.893z"/>
		</g>
		<g>
			<path style="fill:#F7C537;" d="M417.694,201.833c-0.056,0-0.113-0.003-0.171-0.011c-0.392-0.05-0.686-0.251-0.852-0.58
				c-0.737-1.464,1.405-5.371,1.652-5.811c0.062-0.111,0.189-0.17,0.313-0.151c0.126,0.021,0.225,0.119,0.248,0.245
				c0.086,0.479,0.81,4.72-0.359,5.95C418.301,201.711,418.016,201.833,417.694,201.833z M418.425,196.535
				c-0.784,1.576-1.591,3.687-1.214,4.436c0.075,0.149,0.195,0.227,0.388,0.252c0.199,0.024,0.358-0.025,0.489-0.165
				C418.745,200.366,418.615,198.043,418.425,196.535z"/>
		</g>
		<g>
			<g>
				<g>
					<path style="fill:#F78F77;" d="M456.371,199.551c0,0-11.824,9.113-14.423,5.751c-2.252-2.912-2.966-9.724-2.966-9.724
						s1.639-10.788,6.561-9.016C451.554,188.728,456.371,199.551,456.371,199.551z"/>
				</g>
			</g>
		</g>
		<g>
			<g>
				<g>
					
						<rect x="447.437" y="184.697" transform="matrix(-0.9536 -0.301 0.301 -0.9536 817.8348 508.9545)" style="fill:#D1CCD6;" width="1.371" height="13.563"/>
				</g>
			</g>
		</g>
		<g>
			<g>
				<g>
					<path style="fill:#C7C2CC;" d="M449.569,186.897c3.182,1.004,6.575-0.761,7.579-3.943l4.597-14.565l-11.522-3.637
						l-4.597,14.565C444.622,182.499,446.387,185.893,449.569,186.897z"/>
				</g>
			</g>
		</g>
		<g>
			<g>
				<g>
					<path style="fill:#F7C537;" d="M450.297,184.59c2.46,0.776,5.083-0.588,5.859-3.048l1.406-4.454l-8.907-2.811l-1.406,4.454
						C446.473,181.191,447.837,183.814,450.297,184.59z"/>
				</g>
			</g>
		</g>
		<g>
			<g>
				<g>
					<path style="fill:#E2DFE5;" d="M450.224,164.753c-0.127,0.403,2.349,1.544,5.531,2.549s5.864,1.492,5.992,1.088
						c0.127-0.403-2.349-1.544-5.531-2.549C453.033,164.836,450.351,164.349,450.224,164.753z"/>
				</g>
			</g>
		</g>
		<g>
			<g>
				<g>
					<path style="fill:#FFFFFF;" d="M448.655,174.277c-0.127,0.403,1.763,1.36,4.223,2.136c2.46,0.776,4.557,1.079,4.684,0.675
						c0.127-0.403-1.763-1.359-4.223-2.136C450.879,174.177,448.782,173.874,448.655,174.277z"/>
				</g>
			</g>
		</g>
		<g>
			<g>
				<g>
					<g>
						<path style="fill:#F78F77;" d="M442.968,186.946c-1.046,1.156-0.59,3.183,0.944,4.17c2.916,1.878,6.947,4.084,6.748,1.787
							c-0.183-2.109-2.309-4.365-4.025-5.863C445.464,186.019,443.85,185.971,442.968,186.946L442.968,186.946z"/>
					</g>
				</g>
			</g>
		</g>
		<g>
			<g>
				<g>
					<path style="fill:#F78F77;" d="M456.371,199.551c0,0,7.292-4.352,7.295-5.615c0.003-1.579-5.863,0.404-5.863,0.404
						s0.886-2.862,0.169-3.319c-0.973-0.619-2.945-0.358-2.945-0.358s0.959-2.21-0.118-3.173c-1.056-0.946-6.75,1.598-6.75,1.598
						l4.257,7.921L456.371,199.551z"/>
				</g>
			</g>
		</g>
		<g>
			<path d="M443.273,201.919c-0.078,0-0.156-0.03-0.215-0.091c-0.117-0.118-0.116-0.309,0.003-0.427
				c3.725-3.677,1.171-9.742,1.145-9.803c-0.053-0.122-0.02-0.263,0.081-0.349c0.099-0.087,0.245-0.098,0.358-0.026l2.052,1.294
				c0.142,0.089,0.184,0.276,0.095,0.417c-0.089,0.143-0.278,0.182-0.417,0.095l-1.315-0.83c0.589,1.883,1.583,6.518-1.573,9.632
				C443.426,201.89,443.35,201.919,443.273,201.919z"/>
		</g>
		<g>
			<g>
				<g>
					<path style="fill:#D1CCD6;" d="M439.936,196.005c-0.13,0.413,2.516,1.616,5.91,2.687c3.394,1.071,6.252,1.605,6.382,1.193
						c0.13-0.413-2.516-1.616-5.91-2.687C442.923,196.127,440.066,195.593,439.936,196.005z"/>
				</g>
			</g>
		</g>
		<g>
			<path d="M448.51,193.574c-0.804,0-1.234-0.178-1.264-0.19c-0.153-0.066-0.225-0.244-0.158-0.397
				c0.065-0.154,0.243-0.223,0.397-0.159c0.009,0.003,1.08,0.424,3.083-0.212c2.089-0.665,4.263-2.184,4.284-2.199
				c0.136-0.095,0.325-0.064,0.421,0.073c0.096,0.136,0.063,0.325-0.073,0.421c-0.092,0.064-2.269,1.587-4.448,2.281
				C449.825,193.486,449.075,193.574,448.51,193.574z"/>
		</g>
		<g>
			<path d="M450.415,197.605c-1.33,0-2.179-0.326-2.591-0.993c-0.478-0.775-0.299-1.915,0.548-3.485
				c0.078-0.148,0.262-0.201,0.409-0.123c0.146,0.079,0.202,0.263,0.122,0.41c-0.725,1.345-0.914,2.314-0.564,2.881
				c0.311,0.503,1.08,0.739,2.318,0.702c2.265-0.067,6.941-2.886,6.988-2.914c0.142-0.085,0.327-0.041,0.415,0.102
				c0.086,0.143,0.041,0.329-0.103,0.415c-0.197,0.12-4.859,2.93-7.283,3.002C450.586,197.603,450.499,197.605,450.415,197.605z"/>
		</g>
		<g>
			<path d="M413.537,234.342c-0.082,0-0.163-0.033-0.223-0.099l-4.694-5.115c-0.113-0.123-0.105-0.313,0.019-0.427
				c0.122-0.115,0.314-0.105,0.427,0.018l4.694,5.115c0.113,0.123,0.104,0.313-0.019,0.427
				C413.684,234.315,413.611,234.342,413.537,234.342z"/>
		</g>
		<g>
			<path d="M412.203,229.068c-0.073,0-0.146-0.026-0.204-0.08l-1.709-1.569c-0.123-0.113-0.132-0.304-0.019-0.427
				c0.112-0.123,0.305-0.132,0.427-0.019l1.709,1.569c0.123,0.113,0.132,0.304,0.019,0.427
				C412.366,229.035,412.285,229.068,412.203,229.068z"/>
		</g>
		<g>
			<path d="M375.88,159.533c0,0-3.766-11.881-10.405-7.556c-8.335,5.429,1.455,15.979,7.383,12.373
				C378.786,160.745,375.88,159.533,375.88,159.533z"/>
		</g>
		<g>
			<path style="fill:#AF4D04;" d="M392.32,338.269c-0.132,0-0.254-0.088-0.291-0.222c-0.045-0.16,0.049-0.327,0.21-0.372
				l33.356-9.339c0.158-0.048,0.327,0.05,0.372,0.21s-0.049,0.327-0.21,0.372l-33.356,9.339
				C392.375,338.265,392.347,338.269,392.32,338.269z"/>
		</g>
		<g>
			<path style="fill:#AF4D04;" d="M415.544,303.179c-0.135,0-0.257-0.09-0.292-0.227c-0.043-0.161,0.054-0.326,0.216-0.368
				l13.887-3.638c0.158-0.046,0.326,0.053,0.368,0.216c0.043,0.161-0.054,0.326-0.216,0.368l-13.887,3.638
				C415.595,303.175,415.569,303.179,415.544,303.179z"/>
		</g>
	</g>
</g>
<g>
	<g>
		<g>
			<path style="fill:#B1A7B7;" d="M546.037,371.37c-0.652,0-1.217-0.486-1.3-1.15l-14.285-114.743
				c-0.09-0.719,0.421-1.374,1.14-1.464c0.705-0.088,1.374,0.42,1.464,1.14l14.285,114.743c0.09,0.719-0.421,1.374-1.14,1.464
				C546.147,371.366,546.092,371.37,546.037,371.37z"/>
		</g>
		<g>
			<path style="fill:#B1A7B7;" d="M481.903,371.37c-0.055,0-0.109-0.004-0.164-0.011c-0.719-0.09-1.229-0.745-1.14-1.464
				l14.285-114.743c0.09-0.72,0.755-1.227,1.464-1.14c0.719,0.09,1.229,0.745,1.14,1.464L483.202,370.22
				C483.119,370.884,482.555,371.37,481.903,371.37z"/>
		</g>
		<g>
			<path style="fill:#D1CCD6;" d="M492.427,258.353h48.497c2.827,0,5.119-2.292,5.119-5.119c0-2.827-2.292-5.119-5.119-5.119
				h-48.497c-2.827,0-5.119,2.292-5.119,5.119C487.307,256.061,489.599,258.353,492.427,258.353z"/>
		</g>
		<g>
			<path style="fill:#E2DFE5;" d="M486.946,258.353h48.497c2.827,0,5.119-2.292,5.119-5.119c0-2.827-2.292-5.119-5.119-5.119
				h-48.497c-2.827,0-5.119,2.292-5.119,5.119C481.826,256.061,484.118,258.353,486.946,258.353z"/>
		</g>
		<g>
			<path style="fill:#B1A7B7;" d="M535.541,289.245h-43.143c-0.725,0-1.311-0.587-1.311-1.311c0-0.725,0.587-1.311,1.311-1.311
				h43.143c0.725,0,1.312,0.587,1.312,1.311C536.853,288.658,536.266,289.245,535.541,289.245z"/>
		</g>
		<g>
			<path style="fill:#B1A7B7;" d="M540.563,334.964h-53.255c-0.725,0-1.312-0.587-1.312-1.312c0-0.725,0.587-1.312,1.312-1.312
				h53.255c0.725,0,1.312,0.587,1.312,1.312C541.874,334.377,541.287,334.964,540.563,334.964z"/>
		</g>
	</g>
	<g>
		<g>
			<polygon style="fill:#F78F77;" points="476.404,297.196 477.99,313.139 461.312,315.656 461.063,297.196 			"/>
		</g>
		<g>
			<path style="fill:#F7C537;" d="M484.985,326.168c0,0-4.444-22.056-7.803-20.981c-3.359,1.076-6.223,4.919-6.223,4.919
				s-8.606-2.748-11.636,0.173c-3.029,2.921-4.101,8.348-4.101,8.348l-14.441,11.221c-2.673,2.077-4.108,5.416-3.638,8.768
				c0.1,0.71,0.252,1.323,0.48,1.718c0.777,1.347,29.775-4.661,42.483-7.368C483.383,332.269,485.537,329.264,484.985,326.168
				L484.985,326.168z"/>
		</g>
		<g>
			<path style="fill:#FFFFFF;" d="M458.981,321.046c-0.022-0.001-5.93-0.447-5.93-0.447c-0.167-0.013-0.292-0.158-0.279-0.324
				c0.013-0.167,0.16-0.301,0.324-0.279l5.907,0.446c0.167,0.013,0.292,0.158,0.279,0.324
				C459.271,320.925,459.138,321.046,458.981,321.046z"/>
		</g>
		<g>
			<path style="fill:#F78F77;" d="M477.009,232.619c0,0-12.365-0.248-14.968,1.051c-2.603,1.299-4.536,9.69-2.485,11.026
				c2.051,1.337,12.565-3.563,12.565-3.563L477.009,232.619z"/>
		</g>
		<g>
			<path style="fill:#F78F77;" d="M485.555,212.397c0,0-5.489,15.241-9.296,18.798c-3.806,3.557-11.182,8.831-11.182,8.831
				l19.524-3.231l7.724-5.29l2.949-4.625v-15.037L485.555,212.397z"/>
		</g>
		<g>
			<path d="M465.368,244.32c-0.152,0-0.296-0.034-0.429-0.102c-0.287-0.148-0.485-0.399-0.591-0.749
				c-0.639-2.133,2.629-7.951,2.769-8.198c0.083-0.145,0.266-0.196,0.413-0.114c0.145,0.082,0.196,0.268,0.114,0.413
				c-0.915,1.617-3.185,6.159-2.716,7.726c0.057,0.188,0.15,0.314,0.286,0.384c0.092,0.047,0.206,0.048,0.347,0.001
				c1.727-0.568,5.125-6.768,6.289-9.108c0.074-0.15,0.259-0.212,0.405-0.136c0.149,0.074,0.211,0.256,0.136,0.405
				c-0.439,0.885-4.361,8.663-6.641,9.413C465.618,244.298,465.49,244.32,465.368,244.32z"/>
		</g>
		<g>
			<path style="fill:#507849;" d="M496.388,184.019c0,0-5.713,4.758-8.75,14.805c-3.037,10.047-4.1,15.141-4.1,15.141l11.736,3.386
				L496.388,184.019z"/>
		</g>
		<g>
			<polygon style="fill:#F78F77;" points="517.928,298.788 518.678,313.002 502.302,317.039 501,311.241 501.09,296.747 			"/>
		</g>
		<g>
			<path style="fill:#AF4D04;" d="M497.683,226.112c0,0-33.383,12.326-38.127,18.585c-4.107,5.417-7.464,60.555-6.482,61.54
				c0.982,0.986,29.555-2.155,30.823-3.012c1.268-0.857,6.155-38.637,7.942-38.737c1.787-0.1,36.012-34.129,36.012-34.129
				L497.683,226.112z"/>
		</g>
		<g>
			<path style="fill:#AF4D04;" d="M529.516,230.079c0,0,1.339,13.328,0.311,18.313c-1.028,4.985-11.557,10.149-11.557,10.149
				s6.602,44.095,5.902,44.406c-0.701,0.311-29.604,1.35-30.175,1.038c-0.571-0.311-12.305-51.825-9.808-59.407
				c2.496-7.582,10.722-8.698,10.722-8.698L529.516,230.079z"/>
		</g>
		<g>
			<path style="fill:#FFFFFF;" d="M518.27,258.844c-0.124,0-0.238-0.077-0.283-0.195c-0.304-0.803-2.94-7.901-1.849-9.875
				c0.167-0.301,0.42-0.493,0.731-0.556c0.315-0.063,0.608,0.02,0.852,0.24c1.583,1.42,0.93,9.225,0.851,10.11
				c-0.013,0.141-0.121,0.253-0.261,0.272C518.297,258.843,518.283,258.844,518.27,258.844z M517.069,248.803
				c-0.026,0-0.053,0.003-0.081,0.009c-0.137,0.027-0.239,0.108-0.32,0.255c-0.674,1.218,0.524,5.431,1.407,8.027
				c0.196-3.267,0.135-7.385-0.758-8.186C517.237,248.837,517.158,248.803,517.069,248.803z"/>
		</g>
		<g>
			<path style="fill:#FFA63B;" d="M499.561,186.142l6.042-4.82l7.616-0.577l7.022,2.608l-3.676,45.464
				c0,0-11.063,3.018-18.365-0.833S499.561,186.142,499.561,186.142z"/>
		</g>
		<g>
			<path style="fill:#507849;" d="M527.772,185.13c-3.431-3.182-9.02-4.059-12.304-4.299c0,0,0.806,21.528-0.329,34.778
				c-0.641,7.489-1.031,12.701-1.248,15.82c7.885,0.195,16.698-0.051,16.698-0.051S532.85,189.836,527.772,185.13z"/>
		</g>
		<g>
			<path style="fill:#507849;" d="M492.339,215.044c0.044,7.995,0.229,14.48,0.229,14.48s-0.293-0.391,5.114,0.555
				c0.018-5.894,0.882-16.249,1.826-24.989c1.208-11.178,6.094-23.767,6.094-23.767l9.865-0.486
				c-0.997-0.073-1.791-0.091-2.249-0.091c-0.273,0-0.432,0.009-0.432,0.009s-11.132,0.455-16.399,3.265c0,0-0.132,0.073-0.37,0.2
				c-0.9,0.537-1.605,1.155-1.994,1.855C492.489,188.831,492.26,203.501,492.339,215.044z"/>
		</g>
		<g>
			<path d="M501.946,162.496c0,0-2.499-8.172,1.174-9.875c3.673-1.704,6.047,3.068,6.047,3.068s8.308,0.546,11.559,4.915
				c3.251,4.369-4.318,12.324-4.318,12.324L501.946,162.496z"/>
		</g>
		<g>
			<g>
				<path style="fill:#F78F77;" d="M514.976,174.647l0.647,7.628c0,0-1.19,2.309-5.622,3.05c-3.301,0.552-4.533-0.101-4.533-0.101
					l0.136-3.903l0.138-3.806l7.908-2.456L514.976,174.647z"/>
			</g>
		</g>
		<g>
			<g>
				<path d="M513.649,175.06c-0.002,0.21-0.06,0.463-0.159,0.755c-1.384,3.955-5.981,5.172-7.886,5.507l0.138-3.806L513.649,175.06z
					"/>
			</g>
		</g>
		<g>
			<g>
				<path style="fill:#F78F77;" d="M502.567,160.272c0,0-3.193,9.904-1.164,15.084c2.029,5.18,6.801,3.854,9.603,2.532
					c2.802-1.322,3.972-3.239,3.972-3.239s2.807,0.648,4.369-2.058s0.153-5.492-1.463-6.001c-1.616-0.509-3.347,0.795-3.347,0.795
					l1.168-2.902C515.703,164.482,508.219,151.08,502.567,160.272z"/>
			</g>
		</g>
		<g>
			<path d="M515.141,171.478c-0.085,0-0.17-0.036-0.229-0.106c-0.109-0.127-0.095-0.318,0.032-0.427l3.227-2.763
				c0.129-0.108,0.319-0.093,0.427,0.033c0.109,0.127,0.095,0.318-0.032,0.427l-3.228,2.763
				C515.28,171.454,515.21,171.478,515.141,171.478z"/>
		</g>
		<g>
			<path d="M518.27,171.17c-0.017,0-0.033-0.001-0.051-0.004l-2.313-0.391c-0.164-0.028-0.275-0.184-0.248-0.349
				c0.027-0.165,0.174-0.277,0.35-0.248l2.313,0.391c0.164,0.028,0.275,0.184,0.248,0.349
				C518.543,171.065,518.415,171.17,518.27,171.17z"/>
		</g>
		<g>
			<path d="M503.741,171.17c-0.137,0-0.261-0.093-0.294-0.232c-0.624-2.593,0.965-4.16,1.032-4.225
				c0.12-0.116,0.311-0.111,0.427,0.008c0.116,0.12,0.113,0.311-0.006,0.428c-0.058,0.056-1.405,1.402-0.865,3.648
				c0.039,0.163-0.061,0.326-0.223,0.365C503.788,171.167,503.765,171.17,503.741,171.17z"/>
		</g>
		<g>
			<path d="M502.187,167.684c-0.017,0-0.036-0.001-0.055-0.005c-0.164-0.03-0.273-0.188-0.243-0.352l0.329-1.79
				c0.031-0.164,0.182-0.272,0.353-0.243c0.164,0.03,0.273,0.188,0.243,0.352l-0.329,1.79
				C502.457,167.582,502.33,167.684,502.187,167.684z"/>
		</g>
		<g>
			<path d="M506.964,167.684c-0.018,0-0.036-0.001-0.055-0.005c-0.165-0.031-0.273-0.188-0.243-0.352l0.33-1.79
				c0.03-0.164,0.184-0.272,0.353-0.243c0.165,0.031,0.273,0.188,0.243,0.352l-0.33,1.79
				C507.235,167.582,507.108,167.684,506.964,167.684z"/>
		</g>
		<g>
			<path d="M501.946,162.496c0,0,0.698-1.604,2.6-1.778c1.902-0.174,3.127,1.072,3.127,1.072s-0.563,3.275,2.169,4.758
				c2.732,1.483,4.694,0.837,4.694,0.837l1.82-0.828l1.144-2.859l-5.926-5.391l-7.342-3.114l-2.77,2.979L501.946,162.496z"/>
		</g>
		<g>
			<path style="fill:#FFFFFF;" d="M508.036,186.101c-0.771,0-1.588-0.089-2.443-0.298c-0.162-0.04-0.262-0.204-0.222-0.366
				c0.04-0.162,0.196-0.264,0.366-0.222c5.604,1.371,9.474-2.719,9.512-2.76c0.112-0.123,0.306-0.131,0.428-0.017
				c0.123,0.113,0.131,0.305,0.017,0.427C515.659,182.903,512.649,186.101,508.036,186.101z"/>
		</g>
		<g>
			<path style="fill:#F78F77;" d="M547.966,211.326c0,0,3.586,11.266-5.271,16.272s-31.368-4.96-31.368-4.96l2.322-10.58
				l17.438-1.597C531.087,210.462,545.15,210.458,547.966,211.326z"/>
		</g>
		<g>
			<path d="M501.682,163.9c-0.129,0-0.248-0.083-0.288-0.211c-0.051-0.159,0.037-0.33,0.197-0.38l1.841-0.583
				c0.159-0.05,0.329,0.039,0.379,0.197c0.051,0.159-0.037,0.33-0.197,0.38l-1.841,0.583
				C501.742,163.896,501.712,163.9,501.682,163.9z"/>
		</g>
		<g>
			<path d="M508.281,164.336c-0.032,0-0.064-0.005-0.096-0.016l-2.177-0.727c-0.159-0.053-0.244-0.225-0.191-0.383
				c0.053-0.159,0.227-0.245,0.383-0.191l2.177,0.728c0.159,0.053,0.244,0.225,0.191,0.383
				C508.527,164.256,508.408,164.336,508.281,164.336z"/>
		</g>
		<g>
			<path style="fill:#FFFFFF;" d="M488.134,278.295c-0.135,0-0.258-0.091-0.293-0.227c-0.245-0.946-5.988-23.245-4.295-30.139
				c1.51-6.146,11.857-12.314,14.615-13.862l-4.175-1.156c-0.161-0.045-0.255-0.212-0.211-0.373c0.044-0.16,0.207-0.253,0.373-0.211
				l4.892,1.355c0.119,0.033,0.206,0.136,0.22,0.259c0.014,0.123-0.05,0.242-0.159,0.301c-0.133,0.07-13.324,7.143-14.967,13.832
				c-1.657,6.746,4.233,29.612,4.293,29.842c0.042,0.162-0.056,0.327-0.217,0.369C488.185,278.292,488.159,278.295,488.134,278.295z
				"/>
		</g>
		<g>
			<path style="fill:#F7C537;" d="M492.694,320.877c0,0,4.582-12.061,7.681-14.2c3.1-2.14,11.142,4.208,11.142,4.208
				s6.426-7.112,8.14-3.507s2.825,16.638,1.666,19.55c-1.158,2.912-10.092,7.934-21.986,8.196
				c-5.604,0.124-13.729-1.406-13.782-3.332C485.473,328.765,490.833,322.919,492.694,320.877z"/>
		</g>
		<g>
			<path style="fill:#FFFFFF;" d="M504.69,319.463h-8.545c-0.167,0-0.303-0.136-0.303-0.303c0-0.167,0.136-0.303,0.303-0.303h8.545
				c0.167,0,0.303,0.136,0.303,0.303C504.992,319.327,504.857,319.463,504.69,319.463z"/>
		</g>
		<g>
			<path d="M505.468,174.95c-1.061,0-1.522-1.007-1.618-1.54c-0.016-0.085,0.007-0.172,0.06-0.24
				c0.054-0.068,0.133-0.11,0.219-0.116l2.875-0.183c0.113-0.001,0.196,0.038,0.258,0.116c0.061,0.079,0.08,0.183,0.05,0.278
				C507.289,173.334,506.762,174.95,505.468,174.95z M504.55,173.634c0.129,0.305,0.397,0.71,0.918,0.71
				c0.522,0,0.878-0.47,1.077-0.837L504.55,173.634z"/>
		</g>
		<g>
			<g>
				<g>
					
						<rect x="500.951" y="204.493" transform="matrix(-0.9712 0.2382 -0.2382 -0.9712 1039.05 296.4552)" style="fill:#D1CCD6;" width="1.319" height="13.046"/>
				</g>
			</g>
		</g>
		<g>
			<g>
				<g>
					<path style="fill:#C7C2CC;" d="M500.51,206.527c3.117-0.764,5.024-3.911,4.26-7.028l-3.499-14.268l-11.287,2.768l3.499,14.268
						C494.247,205.385,497.393,207.292,500.51,206.527z"/>
				</g>
			</g>
		</g>
		<g>
			<g>
				<g>
					<path style="fill:#F7C537;" d="M499.956,204.268c2.409-0.591,3.884-3.023,3.293-5.433l-1.07-4.363l-8.726,2.14l1.07,4.363
						C495.114,203.384,497.546,204.859,499.956,204.268z"/>
				</g>
			</g>
		</g>
		<g>
			<g>
				<g>
					<path style="fill:#E2DFE5;" d="M489.983,187.999c0.097,0.395,2.702,0.096,5.819-0.669c3.117-0.764,5.565-1.704,5.468-2.099
						c-0.097-0.395-2.702-0.096-5.819,0.669C492.335,186.664,489.886,187.604,489.983,187.999z"/>
				</g>
			</g>
		</g>
		<g>
			<g>
				<g>
					<path style="fill:#FFFFFF;" d="M493.453,196.612c0.097,0.395,2.129,0.236,4.538-0.354c2.41-0.591,4.284-1.39,4.187-1.785
						c-0.097-0.395-2.129-0.236-4.538,0.354C495.231,195.418,493.356,196.217,493.453,196.612z"/>
				</g>
			</g>
		</g>
		<g>
			<g>
				<g>
					<path style="fill:#D1CCD6;" d="M497.143,218.827c0.099,0.404,2.875,0.071,6.2-0.745c3.325-0.815,5.941-1.804,5.841-2.208
						c-0.099-0.404-2.875-0.071-6.2,0.745C499.66,217.434,497.044,218.423,497.143,218.827z"/>
				</g>
			</g>
		</g>
		<g>
			<path style="fill:#F78F77;" d="M505.526,205.334c0,0-1.553-0.054-2.936,0.475c-1.383,0.529-2.657,1.505-2.4,2.237
				c0.258,0.732,2.413,1.044,2.454,1.044c0.041,0,3.869,0.072,3.869,0.072l0.375-2.144L505.526,205.334z"/>
		</g>
		<g>
			<path style="fill:#F78F77;" d="M505.526,205.334v3.004c0,0-7.176-1.453-8.616,0.327c-1.269,1.569,2.46,3.472,2.46,3.472
				s-2.31,0.243-2.527,1.828c-0.137,1,0.064,5.958,2.211,7.567c2.147,1.609,13.471,0.917,13.471,0.917l3.039-9.969
				C515.563,212.481,508.855,205.334,505.526,205.334z"/>
		</g>
		<g>
			<path d="M500.72,207.773c-0.149,0-0.28-0.11-0.3-0.263c-0.022-0.166,0.095-0.318,0.26-0.34l3.362-0.445
				c0.174-0.028,0.318,0.095,0.34,0.26c0.022,0.166-0.095,0.318-0.26,0.34l-3.362,0.445
				C500.746,207.771,500.733,207.773,500.72,207.773z"/>
		</g>
		<g>
			<path style="fill:#507849;" d="M521.538,181.87c0,0,12.445,1.987,19.815,11.78c6.319,8.395,8.341,17.945,8.341,17.945
				s-5.987-0.292-10.215-0.579c-4.444-0.302-11.464-0.782-11.464-0.782L521.538,181.87z"/>
		</g>
		<g>
			<path style="fill:#F7C537;" d="M528.016,210.537c-0.148,0-0.278-0.109-0.3-0.26l-0.528-3.709
				c-0.023-0.166,0.092-0.319,0.257-0.343c0.177-0.02,0.319,0.093,0.343,0.257l0.528,3.709c0.023,0.166-0.092,0.319-0.257,0.343
				C528.044,210.536,528.029,210.537,528.016,210.537z"/>
		</g>
	</g>
</g>
<g>
	<g>
		<g>
			<path style="fill:#B1A7B7;" d="M63.959,371.723c-0.054,0-0.108-0.003-0.164-0.01c-0.718-0.09-1.228-0.744-1.138-1.463
				l14.268-114.605c0.089-0.718,0.74-1.227,1.462-1.139c0.718,0.09,1.228,0.744,1.138,1.463L65.258,370.574
				C65.175,371.237,64.611,371.723,63.959,371.723z"/>
		</g>
		<g>
			<path style="fill:#B1A7B7;" d="M128.018,371.723c-0.652,0-1.216-0.485-1.299-1.148L112.451,255.97
				c-0.089-0.719,0.42-1.373,1.138-1.463c0.725-0.092,1.373,0.421,1.462,1.139L129.32,370.25c0.089,0.719-0.42,1.373-1.138,1.463
				C128.126,371.72,128.072,371.723,128.018,371.723z"/>
		</g>
		<g>
			<path style="fill:#D1CCD6;" d="M117.506,258.842H69.067c-2.824,0-5.113-2.289-5.113-5.113s2.289-5.113,5.113-5.113h48.439
				c2.824,0,5.113,2.289,5.113,5.113S120.33,258.842,117.506,258.842z"/>
		</g>
		<g>
			<path style="fill:#E2DFE5;" d="M122.98,258.842H74.541c-2.824,0-5.113-2.289-5.113-5.113s2.289-5.113,5.113-5.113h48.439
				c2.824,0,5.113,2.289,5.113,5.113S125.804,258.842,122.98,258.842z"/>
		</g>
		<g>
			<path style="fill:#B1A7B7;" d="M117.534,289.698H74.443c-0.724,0-1.311-0.587-1.311-1.311s0.587-1.311,1.311-1.311h43.091
				c0.724,0,1.311,0.587,1.311,1.311S118.257,289.698,117.534,289.698z"/>
		</g>
		<g>
			<path style="fill:#B1A7B7;" d="M122.619,335.361h-53.19c-0.724,0-1.311-0.587-1.311-1.31c0-0.724,0.587-1.311,1.311-1.311h53.19
				c0.724,0,1.311,0.587,1.311,1.311C123.929,334.774,123.342,335.361,122.619,335.361z"/>
		</g>
	</g>
	<g>
		<g>
			<path d="M111.926,153.567c0,0,3.356,2.685,1.159,6.536c-2.198,3.852-4.618-7.729-4.618-7.729L111.926,153.567z"/>
		</g>
		<g>
			<polygon style="fill:#F78F77;" points="135.904,334.292 140.002,344.474 160.603,335.756 155.821,323.875 			"/>
		</g>
		<g>
			<path style="fill:#4A6D43;" d="M198.005,351.968c-1.02,0.84-49.956,16.435-51.636,14.829c-0.509-0.484-1.304-2.395-2.151-4.838
				c-2.028-5.752-4.441-14.478-4.441-14.478s-1.186-2.876-1.496-4.28c-0.32-1.384,23.555-7.677,23.555-7.677l18.987,8.46
				c0,0,4.012-2.014,8.857-2.544c2.565-0.289,5.024,2.438,6.635,5.209C197.746,349.108,198.487,351.564,198.005,351.968z"/>
		</g>
		<g>
			<path style="fill:#AD4D40;" d="M198.005,351.968c-1.02,0.84-49.956,16.435-51.636,14.829c-0.509-0.484-1.304-2.395-2.151-4.838
				c9.575-1.987,33.022-7.278,52.098-15.309C197.746,349.108,198.487,351.564,198.005,351.968z"/>
		</g>
		<g>
			<path style="fill:#F7C537;" d="M167.215,343.824c-0.091,0-0.179-0.042-0.237-0.115c-0.069-0.087-0.085-0.204-0.041-0.307
				l2.009-4.705c0.066-0.153,0.244-0.225,0.396-0.159c0.153,0.065,0.225,0.243,0.159,0.397l-1.79,4.193l8.508-1.471
				c0.161-0.025,0.321,0.082,0.349,0.246c0.028,0.165-0.082,0.321-0.247,0.35l-9.055,1.565
				C167.249,343.822,167.232,343.824,167.215,343.824z"/>
		</g>
		<g>
			<path style="fill:#EFB626;" d="M110.628,219.896c0,0,23.238,25.078,28.736,37.464c6.233,14.04,28.308,69.616,28.308,69.616
				l-36.335,14.372l-17.482-53.42L110.628,219.896z"/>
		</g>
		<g>
			<path style="fill:#F78F77;" d="M154.414,189.072c0,0-1.752,23.522-14.995,27.607c-13.243,4.085-22.447-3.499-22.447-3.499
				l8.871-19.31c0,0,4.81,1.373,7.052,0.488c2.242-0.885,12.838-12.813,12.838-12.813L154.414,189.072z"/>
		</g>
		<g>
			<polygon style="fill:#F78F77;" points="109.702,300.517 108.738,311.465 130.988,313.424 132.113,300.649 			"/>
		</g>
		<g>
			<path style="fill:#507849;" d="M158.464,340.448c-1.264,0.357-52.287-5.16-53.204-7.314c-0.279-0.65-0.263-2.724-0.089-5.307
				c0.38-6.095,1.567-15.073,1.567-15.073s0.032-3.118,0.295-4.53c0.246-1.398,24.626,2.5,24.626,2.5l14.139,15.446
				c0,0,4.47-0.222,9.126,1.255c2.468,0.774,3.663,4.27,4.063,7.463C159.342,337.72,159.065,340.273,158.464,340.448z"/>
		</g>
		<g>
			<path style="fill:#BC574A;" d="M158.464,340.448c-1.264,0.357-52.287-5.16-53.204-7.314c-0.279-0.65-0.263-2.724-0.089-5.307
				c9.568,2.056,33.165,6.7,53.816,7.06C159.342,337.72,159.065,340.273,158.464,340.448z"/>
		</g>
		<g>
			<path style="fill:#F7C537;" d="M142.407,322.768c-0.024,0-0.049-0.003-0.073-0.01l-8.927-2.231
				c-0.107-0.026-0.191-0.109-0.219-0.216c-0.028-0.106,0.004-0.22,0.084-0.296l3.679-3.501c0.122-0.114,0.313-0.11,0.427,0.011
				c0.115,0.12,0.11,0.311-0.01,0.427l-3.281,3.122l8.394,2.099c0.162,0.04,0.26,0.204,0.22,0.366
				C142.666,322.676,142.543,322.768,142.407,322.768z"/>
		</g>
		<g>
			<g>
				<path style="fill:#F7C537;" d="M138.391,305.991c0,0,15.565-47.768,9.678-60.945c-5.887-13.176-48.37-22.938-48.37-22.938
					l-20.788,0.551c0,0-4.893,23.669,3.733,30.54c8.625,6.872,29.687,8.493,29.687,8.493l-8.453,41.905L138.391,305.991z"/>
			</g>
		</g>
		<g>
			<path style="fill:#FFFFFF;" d="M112.454,261.968c-0.067,0-0.134-0.022-0.189-0.066c-0.093-0.075-0.134-0.198-0.103-0.314
				c0.066-0.251,1.664-6.148,4.837-7.887c0.945-0.518,1.936-0.615,2.949-0.293c0.844,0.27,1.298,0.707,1.35,1.301
				c0.215,2.488-7.791,6.747-8.704,7.224C112.55,261.956,112.502,261.968,112.454,261.968z M118.79,253.825
				c-0.509,0-1.005,0.135-1.5,0.405c-2.338,1.28-3.817,5.223-4.336,6.825c3.301-1.799,7.869-4.82,7.742-6.295
				c-0.028-0.327-0.342-0.589-0.931-0.776C119.433,253.878,119.109,253.825,118.79,253.825z"/>
		</g>
		<g>
			<path style="fill:#B75542;" d="M116.728,179.165l-8.864-3.264l-7.962-0.838l-8.751,0.924L78.087,227.97l39.56-1.24
				C119.119,218.961,116.728,179.165,116.728,179.165z"/>
		</g>
		<g>
			<path style="fill:#B75542;" d="M91.151,175.987c0,0-13.1,1.702-21.123,11.738c-6.877,8.603-9.134,18.354-9.134,18.354
				s5.965-0.486,10.405-0.31c4.439,0.176,12.901,0.683,12.901,0.683L91.151,175.987z"/>
		</g>
		<g>
			<g>
				<path style="fill:#F78F77;" d="M98.929,168.676l-0.903,7.908c0,0,1.167,2.436,5.75,3.34c3.414,0.674,4.714,0.033,4.714,0.033
					l-0.023-4.06l-0.028-3.96l-8.144-2.792L98.929,168.676z"/>
			</g>
		</g>
		<g>
			<g>
				<path d="M100.295,169.146c-0.005,0.218,0.048,0.482,0.143,0.789c1.318,4.152,6.059,5.557,8.029,5.962l-0.028-3.96
					L100.295,169.146z"/>
			</g>
		</g>
		<g>
			<g>
				<path style="fill:#F78F77;" d="M112.261,154.113c0,0,3.018,10.389,0.753,15.712c-2.265,5.322-7.184,3.799-10.057,2.34
					c-2.872-1.459-4.03-3.487-4.03-3.487s-2.936,0.588-4.478-2.272c-1.541-2.86,0.007-5.713,1.702-6.192
					c1.695-0.48,3.454,0.928,3.454,0.928l-1.126-3.052C98.481,158.09,106.664,144.388,112.261,154.113z"/>
			</g>
		</g>
		<g>
			<path d="M98.863,165.365c-0.073,0-0.146-0.026-0.203-0.079l-3.271-2.969c-0.124-0.112-0.133-0.303-0.021-0.427
				c0.113-0.124,0.304-0.132,0.427-0.02l3.271,2.969c0.124,0.112,0.133,0.303,0.021,0.427
				C99.027,165.332,98.945,165.365,98.863,165.365z"/>
		</g>
		<g>
			<path d="M95.619,164.95c-0.148,0-0.278-0.109-0.299-0.261c-0.023-0.165,0.092-0.318,0.258-0.341l2.416-0.336
				c0.166-0.022,0.318,0.092,0.341,0.258c0.023,0.165-0.092,0.318-0.258,0.341l-2.416,0.336
				C95.647,164.949,95.633,164.95,95.619,164.95z"/>
		</g>
		<g>
			<path d="M110.718,165.39c-0.026,0-0.053-0.003-0.079-0.011c-0.161-0.043-0.256-0.21-0.212-0.371
				c0.636-2.339-0.776-3.814-0.791-3.829c-0.117-0.119-0.115-0.311,0.004-0.427c0.119-0.117,0.311-0.116,0.427,0.004
				c0.068,0.07,1.668,1.741,0.942,4.41C110.973,165.302,110.852,165.39,110.718,165.39z"/>
		</g>
		<g>
			<path d="M112.44,161.814c-0.146,0-0.275-0.107-0.298-0.256l-0.288-1.87c-0.025-0.165,0.088-0.319,0.253-0.345
				c0.164-0.026,0.319,0.087,0.345,0.253l0.288,1.87c0.025,0.165-0.088,0.319-0.253,0.345
				C112.47,161.814,112.455,161.814,112.44,161.814z"/>
		</g>
		<g>
			<path d="M107.496,161.814c-0.146,0-0.275-0.107-0.298-0.256l-0.288-1.87c-0.025-0.165,0.088-0.319,0.253-0.345
				c0.162-0.026,0.319,0.087,0.345,0.253l0.288,1.87c0.025,0.165-0.088,0.319-0.253,0.345
				C107.527,161.814,107.512,161.814,107.496,161.814z"/>
		</g>
		<g>
			<path style="fill:#F7C537;" d="M106.522,180.823c-5.244,0-9.022-4.177-9.065-4.225c-0.111-0.124-0.1-0.315,0.025-0.426
				c0.125-0.11,0.315-0.101,0.427,0.025c0.045,0.05,4.607,5.082,10.544,3.817c0.162-0.039,0.323,0.069,0.358,0.232
				c0.035,0.163-0.069,0.324-0.232,0.358C107.873,180.755,107.185,180.823,106.522,180.823z"/>
		</g>
		<g>
			<path style="fill:#F78F77;" d="M62.559,206.045c0,0-4.102,11.695,5.026,17.212c9.128,5.516,39.172-4.512,39.172-4.512
				l-1.27-12.355l-25.215-0.735C80.271,205.655,65.537,205.221,62.559,206.045z"/>
		</g>
		<g>
			<path d="M113.086,157.985c-0.039-0.003-1.785-0.229-1.785-0.229c-0.165-0.021-0.282-0.173-0.261-0.339
				c0.021-0.166,0.178-0.276,0.339-0.261l1.746,0.226c0.166,0.021,0.282,0.173,0.261,0.338
				C113.365,157.874,113.235,157.985,113.086,157.985z"/>
		</g>
		<g>
			<path d="M106.207,158.151c-0.156,0-0.289-0.12-0.301-0.278c-0.013-0.167,0.111-0.312,0.277-0.325l2.074-0.163
				c0.157-0.014,0.312,0.11,0.325,0.277c0.013,0.166-0.111,0.312-0.277,0.325l-2.074,0.163
				C106.223,158.15,106.215,158.151,106.207,158.151z"/>
		</g>
		<g>
			<path style="fill:#B75542;" d="M116.728,179.165c0,0,6.189,4.921,9.898,8.19c4.458,3.93,7.636,5.376,7.636,5.376
				s-3.674,11.66-5.091,16.63c-1.777,6.232-3.356,10.475-3.356,10.475s-11.398-0.097-12.082-6.223
				C113.048,207.486,116.728,179.165,116.728,179.165z"/>
		</g>
		<g>
			<path style="fill:#F7C537;" d="M83.497,205.813c-0.017,0-0.035-0.002-0.052-0.005c-0.165-0.028-0.275-0.185-0.247-0.35
				l0.667-3.869c0.028-0.164,0.188-0.274,0.349-0.246c0.164,0.028,0.275,0.184,0.246,0.35l-0.667,3.869
				C83.769,205.708,83.641,205.813,83.497,205.813z"/>
		</g>
		<g>
			<path d="M108.927,168.655c-0.036,0-0.071-0.001-0.108-0.002c-1.324-0.039-2.078-1.326-2.11-1.38
				c-0.059-0.103-0.052-0.23,0.017-0.327c0.069-0.096,0.191-0.143,0.304-0.12l3.505,0.689c0.105,0.021,0.191,0.095,0.226,0.195
				c0.036,0.101,0.016,0.213-0.053,0.295C110.687,168.033,110.153,168.655,108.927,168.655z M107.759,167.586
				c0.271,0.235,0.637,0.451,1.078,0.463c0.334,0.014,0.592-0.033,0.799-0.094L107.759,167.586z"/>
		</g>
		<g>
			<path style="fill:#F78F77;" d="M150.395,178.412c0,0,13.411-3.313,18.006-1.989c2.838,0.818,0.54,2.742,0.54,2.742
				s3.405,0.939,2.305,2.27c-1.1,1.331-1.1,1.331-1.1,1.331s1.808,1.006-0.486,3.192c-2.294,2.186-12.371,6.351-20.417,5.112
				c-8.046-1.239-2.858-10.981-2.858-10.981L150.395,178.412z"/>
		</g>
		<g>
			<path style="fill:#F78F77;" d="M144.218,183.84c0.551-1.473,2.614-8.118,3.993-8.61c1.897-0.676,6.249-3.745,7.61-1.986
				c1.361,1.759-2.939,4.59-2.939,4.59s-2.492,4.438-5.157,5.324C146.392,183.601,143.924,184.624,144.218,183.84z"/>
		</g>
		<g>
			<path d="M146.902,184.089c-0.217,0-0.436-0.014-0.66-0.042c-0.165-0.021-0.283-0.172-0.262-0.337
				c0.02-0.165,0.178-0.284,0.337-0.262c3.934,0.495,6.952-4.307,6.982-4.355c0.087-0.142,0.274-0.186,0.416-0.099
				c0.142,0.088,0.186,0.274,0.099,0.416C153.69,179.611,150.882,184.089,146.902,184.089z"/>
		</g>
		<g>
			<path d="M161.531,186.128c-0.1,0-0.197-0.049-0.254-0.138l-4.246-6.581c-0.091-0.141-0.05-0.328,0.09-0.418
				c0.141-0.09,0.328-0.05,0.418,0.09l4.246,6.581c0.091,0.141,0.05,0.328-0.09,0.418
				C161.644,186.112,161.587,186.128,161.531,186.128z"/>
		</g>
		<g>
			<path d="M99.606,161.141c0,0,0.75,1.534,1.425,1.617c0.675,0.083-0.45-3.454-0.45-3.454s3.108-1.061,4.256-2.467
				c1.148-1.406,1.363-3.008,1.363-3.008l5.726-0.262c0,0,1.101-4.703-2.463-5.739c-3.564-1.035-5.51,1.243-5.51,1.243
				s-5.716-1.4-8.947,2.569c-3.231,3.97-0.582,10.059-0.582,10.059S95.894,159.564,99.606,161.141z"/>
		</g>
		<g>
			<path d="M160.736,184.898c-0.142,0-0.269-0.101-0.296-0.246c-0.031-0.164,0.076-0.322,0.24-0.354l7.94-1.513
				c0.163-0.031,0.323,0.076,0.354,0.24c0.031,0.164-0.076,0.322-0.24,0.354l-7.94,1.513
				C160.775,184.897,160.756,184.898,160.736,184.898z"/>
		</g>
		<g>
			<path d="M158.512,181.451c-0.142,0-0.269-0.101-0.296-0.246c-0.031-0.164,0.076-0.322,0.24-0.354l10.428-1.984
				c0.164-0.033,0.323,0.077,0.354,0.24c0.031,0.164-0.076,0.322-0.24,0.354l-10.428,1.984
				C158.55,181.449,158.531,181.451,158.512,181.451z"/>
		</g>
		<g>
			<path style="fill:#F2513B;" d="M126.051,222.093h-11.419c-1.204,0-2.18-0.976-2.18-2.18v-21.861h15.78v21.861
				C128.232,221.117,127.256,222.093,126.051,222.093z"/>
		</g>
		<g>
			<ellipse style="fill:#BBAFC0;" cx="120.342" cy="198.051" rx="7.89" ry="0.932"/>
		</g>
		<g>
			<path style="fill:#F78F77;" d="M105.487,206.39c0,0,2.144-1.991,2.98-2.815c1.386-1.365,3.988-1.235,3.988-1.235v4.112
				c0,0,12.829,0.554,14.957,1.096c2.128,0.542,0,2.525,0,2.525s6.152,1.381,4.365,3.203c-1.788,1.823-4.389,1.952-4.389,1.952
				s3.903,0.243,2.081,2.661c-1.823,2.417-17.937,5.654-25.632,0S105.487,206.39,105.487,206.39z"/>
		</g>
		<g>
			<path d="M112.454,206.754h-3.729c-0.167,0-0.302-0.136-0.302-0.303c0-0.167,0.135-0.303,0.302-0.303h3.729
				c0.167,0,0.302,0.136,0.302,0.303C112.757,206.618,112.621,206.754,112.454,206.754z"/>
		</g>
		<g>
			<path d="M126.604,210.375h-8.559c-0.167,0-0.302-0.136-0.302-0.303c0-0.167,0.135-0.303,0.302-0.303h8.559
				c0.167,0,0.302,0.136,0.302,0.303C126.906,210.239,126.771,210.375,126.604,210.375z"/>
		</g>
		<g>
			<path d="M127.388,215.529h-9.262c-0.167,0-0.302-0.136-0.302-0.303c0-0.167,0.135-0.303,0.302-0.303h9.262
				c0.167,0,0.302,0.136,0.302,0.303C127.69,215.394,127.555,215.529,127.388,215.529z"/>
		</g>
	</g>
</g>
<g>
	<g>
		<g>
			<path style="fill:#B1A7B7;" d="M281.185,371.402c-0.651,0-1.216-0.485-1.299-1.148l-14.268-114.605
				c-0.089-0.719,0.421-1.373,1.139-1.463c0.703-0.088,1.373,0.42,1.463,1.139l14.268,114.604c0.089,0.719-0.421,1.373-1.139,1.463
				C281.294,371.399,281.24,371.402,281.185,371.402z"/>
		</g>
		<g>
			<path style="fill:#B1A7B7;" d="M217.127,371.402c-0.054,0-0.108-0.003-0.164-0.01c-0.718-0.09-1.227-0.744-1.138-1.463
				l14.269-114.604c0.089-0.718,0.738-1.229,1.462-1.139c0.718,0.09,1.228,0.744,1.138,1.463l-14.269,114.605
				C218.343,370.917,217.778,371.402,217.127,371.402z"/>
		</g>
		<g>
			<path style="fill:#D1CCD6;" d="M227.639,258.522h48.439c2.824,0,5.113-2.289,5.113-5.113s-2.289-5.113-5.113-5.113h-48.439
				c-2.824,0-5.113,2.289-5.113,5.113S224.815,258.522,227.639,258.522z"/>
		</g>
		<g>
			<path style="fill:#E2DFE5;" d="M222.164,258.522h48.439c2.824,0,5.113-2.289,5.113-5.113s-2.289-5.113-5.113-5.113h-48.439
				c-2.824,0-5.113,2.289-5.113,5.113S219.341,258.522,222.164,258.522z"/>
		</g>
		<g>
			<path style="fill:#B1A7B7;" d="M270.701,289.378h-43.091c-0.724,0-1.311-0.587-1.311-1.31c0-0.724,0.587-1.311,1.311-1.311
				h43.091c0.724,0,1.311,0.587,1.311,1.311C272.012,288.791,271.425,289.378,270.701,289.378z"/>
		</g>
		<g>
			<path style="fill:#B1A7B7;" d="M275.716,335.041h-53.19c-0.724,0-1.311-0.587-1.311-1.31c0-0.724,0.587-1.311,1.311-1.311h53.19
				c0.724,0,1.311,0.587,1.311,1.311C277.027,334.454,276.44,335.041,275.716,335.041z"/>
		</g>
	</g>
	<g>
		<g>
			<polygon style="fill:#F78F77;" points="174.504,302.459 173.162,312.223 193.917,313.363 194.937,304.464 			"/>
		</g>
		<g>
			<path style="fill:#F78F77;" d="M189.655,190.322c0,0-3.075-5.331-6.748-5.02c-3.673,0.312-7.292,5.562-7.292,5.562l-2.719,8.172
				c0,0,6.072,7.445,16.794,7.445c5.967,0,3.472-7.766,2.985-9.849C192.186,194.549,189.655,190.322,189.655,190.322z"/>
		</g>
		<g>
			<path style="fill:#F2513B;" d="M178.966,206.482h-11.449c-1.207,0-2.186-0.979-2.186-2.186v-21.919h15.822v21.919
				C181.153,205.503,180.174,206.482,178.966,206.482z"/>
		</g>
		<g>
			<path style="fill:#F78F77;" d="M188.916,189.799c0,0-2.302-2.951-4.628-2.001c-2.325,0.95-6.949,4.393-5.03,5.835
				c1.919,1.442,5.03,0,5.03,0s0.252,6.036,2.541,6.841c2.288,0.805,5.408,0.838,5.507-3.525
				C192.398,194.247,188.916,189.799,188.916,189.799z"/>
		</g>
		<g>
			<path d="M189.69,201.141c-2.117-0.101-3.683-0.803-4.671-2.089c-1.288-1.676-1.232-3.868-1.115-4.9
				c-0.856,0.377-2.573,1.002-3.792,0.598c-0.516-0.17-0.895-0.502-1.125-0.986c-0.706-1.482,2.229-4.409,2.566-4.737
				c0.12-0.117,0.311-0.115,0.427,0.005c0.117,0.119,0.114,0.311-0.005,0.427c-1.153,1.126-2.835,3.219-2.442,4.045
				c0.159,0.333,0.41,0.553,0.769,0.672c1.412,0.466,3.822-0.796,3.847-0.809c0.104-0.055,0.23-0.045,0.324,0.026
				c0.094,0.071,0.138,0.189,0.113,0.305c-0.006,0.029-0.62,2.992,0.916,4.988c0.875,1.137,2.29,1.76,4.204,1.851
				c0.167,0.008,0.296,0.149,0.288,0.316C189.984,201.014,189.85,201.141,189.69,201.141z"/>
		</g>
		<g>
			<polygon style="fill:#F78F77;" points="220.055,295.597 223.667,304.768 242.32,295.597 238.851,287.339 			"/>
		</g>
		<g>
			<path style="fill:#AF4D04;" d="M172.368,310.498c0,0-6.183,7.363-7.625,8.066s-16.49,5.846-19.367,8.689
				c-2.878,2.843-3.059,8.406-2.231,8.924c0.828,0.519,50.401-0.227,50.401-0.227l1.347-23.086c0.024-0.417-0.291-0.775-0.707-0.805
				L172.368,310.498z"/>
		</g>
		<g>
			<path style="fill:#F7C537;" d="M168.108,312.298c0,0,8.887,5.624,7.555,6.692c-1.332,1.068-14.712,2.918-14.789,1.45
				C160.798,318.973,166.54,312.643,168.108,312.298z"/>
		</g>
		<g>
			<polygon style="fill:#507849;" points="229.211,244.112 247.781,288.075 216.356,299.195 205.154,272.601 214.439,244.112 			"/>
		</g>
		<g>
			<path style="fill:#507849;" d="M269.823,225.658c0,0,4.09,21.902-3.665,26.129c-6.637,3.618-47.274,7.491-49.384,9.344
				c-2.11,1.853-16.271,46.78-16.271,46.78l-34.647-3.464c0,0,12.522-61.901,21.637-68.201c6.85-4.734,45.492-14.31,45.492-14.31
				L269.823,225.658z"/>
		</g>
		<g>
			<path style="fill:#FFFFFF;" d="M208.282,282.665c-0.037,0-0.074-0.007-0.11-0.021c-0.155-0.061-0.232-0.235-0.172-0.391
				c0.323-0.829,7.925-20.32,9.396-22.075c1.495-1.784,14.828-2.729,16.343-2.831c0.175-0.004,0.311,0.115,0.322,0.281
				c0.011,0.167-0.115,0.311-0.281,0.322c-5.848,0.393-14.914,1.414-15.92,2.616c-1.126,1.343-6.573,14.916-9.296,21.905
				C208.517,282.592,208.403,282.665,208.282,282.665z"/>
		</g>
		<g>
			<path style="fill:#FFFFFF;" d="M217.628,260.675c-0.054,0-0.108-0.015-0.157-0.044c-0.242-0.146-5.93-3.621-6.45-6.499
				c-0.115-0.636,0.021-1.203,0.403-1.688c0.45-0.567,0.94-0.626,1.268-0.568c2.294,0.376,4.927,7.575,5.22,8.395
				c0.043,0.12,0.005,0.255-0.094,0.336C217.764,260.651,217.696,260.675,217.628,260.675z M212.49,252.463
				c-0.154,0-0.358,0.063-0.59,0.356c-0.274,0.347-0.367,0.741-0.283,1.205c0.366,2.024,3.841,4.552,5.409,5.6
				c-0.968-2.489-2.971-6.912-4.431-7.152C212.563,252.467,212.528,252.463,212.49,252.463z"/>
		</g>
		<g>
			<g>
				<path d="M233.885,176.609c0,0-2.296-6.749,0.442-10.665c2.883-4.124,7.821-4.57,7.665-7.877
					c-0.361-7.683,5.07-11.452,5.07-11.452l1.424,30.256L233.885,176.609z"/>
			</g>
		</g>
		<g>
			<path style="fill:#BC574A;" d="M192.337,192.639c0,0,15.155-2.227,26.041-8.314c7.215-4.034,17.471-11.2,17.471-11.2
				l3.981,33.336c0,0-9.985,5.393-23.255,7.85c-10.549,1.954-28.186-1.961-28.186-1.961L192.337,192.639z"/>
		</g>
		<g>
			<path d="M247.084,143.637c0,0,2.903-3.662,9.235-1.649c6.331,2.013,6.084,7.583,6.084,7.583l-1.317,4.223l5.524,11.059
				l0.238,11.297l-21.326-2.552l-1.605-16.298L247.084,143.637z"/>
		</g>
		<g>
			<path style="fill:#F7C537;" d="M231.393,225.139c0,0,23.116,1.808,23.431-1.63c0.718-7.853,4.955-49.109,4.955-49.109
				l-3.699-5.368l-11.082,1.747c0,0-5.313,0.78-9.972,15.29C230.367,200.579,231.393,225.139,231.393,225.139z"/>
		</g>
		<g>
			<g>
				<path d="M262.408,148.726c0,0-0.446,6.341,4.1,7.877c3.599,1.216,6.811,1.632,8.641,6.491c1.791,4.756-1.15,7.912,2.602,10.696
					c3.753,2.784,5.342-0.599,10.799,2.495c7.207,4.086,5.293,19.297-6.386,17.919c-12.185-1.438-14.425-15.985-14.425-15.985
					l-11-25.518L262.408,148.726z"/>
			</g>
		</g>
		<g>
			<g>
				<g>
					<g>
						<path style="fill:#F78F77;" d="M256.973,163.907l0.114,8.01c0,0-1.412,2.323-6.092,2.77c-3.487,0.333-4.618-1.444-4.618-1.444
							l0.746-7.021l8.435-1.981L256.973,163.907z"/>
					</g>
				</g>
			</g>
		</g>
		<g>
			<g>
				<g>
					<g>
						<path d="M255.558,164.241c-0.017,0.219-0.097,0.478-0.222,0.776c-1.736,4.027-6.624,4.959-8.637,5.168l0.424-3.963
							L255.558,164.241z"/>
					</g>
				</g>
			</g>
		</g>
		<g>
			<g>
				<g>
					<g>
						<path style="fill:#F78F77;" d="M245.077,147.99c0,0-4.061,10.103-2.325,15.659c1.737,5.556,6.815,4.523,9.837,3.349
							c3.022-1.174,4.384-3.089,4.384-3.089s2.882,0.883,4.711-1.827c1.83-2.71,0.564-5.722-1.086-6.372
							c-1.65-0.65-3.552,0.584-3.552,0.584l1.432-2.944C258.48,153.35,251.654,138.811,245.077,147.99z"/>
					</g>
				</g>
			</g>
		</g>
		<g>
			<g>
				<g>
					<g>
						<path d="M257.047,156.294c0,0-4.253,1.034-7.419-3.62c-3.166-4.654-2.969-6.624-2.969-6.624l-2.774,5.042
							c0,0-0.798-3.389,0.483-5.62c1.28-2.231,2.716-1.835,2.716-1.835l9.546,1.99l2.787,7.479L257.047,156.294z"/>
					</g>
				</g>
			</g>
		</g>
		<g>
			<path d="M247.752,163.338c-0.218,0-0.355-0.027-0.374-0.032c-0.164-0.035-0.268-0.195-0.233-0.358
				c0.035-0.163,0.197-0.268,0.357-0.233c0.054,0.011,1.323,0.244,2.475-1.219c0.103-0.132,0.294-0.153,0.424-0.05
				c0.131,0.103,0.154,0.293,0.05,0.424C249.442,163.151,248.321,163.338,247.752,163.338z"/>
		</g>
		<g>
			<path d="M245.903,160.633c-0.125,0-0.242-0.078-0.285-0.203c-0.735-2.101,0.685-4.318,0.745-4.411
				c0.092-0.14,0.279-0.179,0.418-0.088c0.14,0.091,0.18,0.278,0.089,0.418c-0.013,0.02-1.317,2.064-0.682,3.882
				c0.055,0.157-0.028,0.329-0.186,0.385C245.969,160.627,245.936,160.633,245.903,160.633z"/>
		</g>
		<g>
			<path d="M250.662,156.032c-0.108,0-0.212-0.058-0.267-0.159c-0.169-0.313-0.382-0.496-0.649-0.558
				c-0.575-0.13-1.221,0.326-1.228,0.33c-0.136,0.097-0.326,0.065-0.421-0.068c-0.098-0.135-0.068-0.324,0.067-0.421
				c0.035-0.025,0.869-0.625,1.714-0.43c0.442,0.101,0.795,0.39,1.049,0.86c0.079,0.147,0.025,0.33-0.122,0.41
				C250.76,156.02,250.711,156.032,250.662,156.032z"/>
		</g>
		<g>
			<path d="M245.049,155.786c-0.121,0-0.236-0.074-0.282-0.194c-0.099-0.256-0.398-0.794-0.693-0.825
				c-0.171-0.006-0.394,0.164-0.62,0.511c-0.091,0.14-0.277,0.18-0.418,0.089c-0.14-0.091-0.18-0.278-0.089-0.418
				c0.367-0.564,0.768-0.829,1.191-0.783c0.741,0.079,1.15,1.094,1.194,1.21c0.06,0.156-0.018,0.33-0.174,0.39
				C245.122,155.779,245.086,155.786,245.049,155.786z"/>
		</g>
		<g>
			<path d="M250.335,153.122c-0.073,0-0.147-0.026-0.205-0.08c-1.234-1.141-1.91-0.584-1.939-0.559
				c-0.125,0.107-0.315,0.097-0.425-0.025c-0.11-0.122-0.104-0.309,0.018-0.421c0.044-0.04,1.091-0.976,2.756,0.562
				c0.122,0.113,0.13,0.305,0.017,0.427C250.498,153.089,250.416,153.122,250.335,153.122z"/>
		</g>
		<g>
			<path d="M243.833,152.997c-0.071,0-0.142-0.025-0.199-0.075c-0.125-0.11-0.139-0.301-0.029-0.426
				c0.146-0.168,0.908-1.006,1.592-0.866c0.207,0.04,0.486,0.183,0.645,0.639c0.055,0.158-0.029,0.33-0.186,0.385
				c-0.159,0.052-0.331-0.028-0.385-0.186c-0.051-0.148-0.115-0.23-0.188-0.244c-0.241-0.056-0.749,0.358-1.022,0.67
				C244.001,152.962,243.917,152.997,243.833,152.997z"/>
		</g>
		<g>
			<path d="M257.63,160.94c-0.071,0-0.142-0.025-0.199-0.075c-0.126-0.11-0.138-0.301-0.028-0.426l2.604-2.969
				c0.11-0.126,0.302-0.137,0.426-0.028c0.126,0.11,0.138,0.301,0.028,0.426l-2.604,2.969
				C257.798,160.905,257.714,160.94,257.63,160.94z"/>
		</g>
		<g>
			<path d="M260.469,160.066c-0.035-0.002-1.918-0.218-1.918-0.218c-0.166-0.019-0.285-0.169-0.266-0.334
				c0.019-0.166,0.183-0.282,0.335-0.266l1.884,0.216c0.166,0.019,0.285,0.169,0.266,0.334
				C260.752,159.953,260.621,160.066,260.469,160.066z"/>
		</g>
		<g>
			<path style="fill:#BC574A;" d="M250.573,229.974c0,0,6.419-60.036,6.415-60.54c-0.004-0.503-0.004-0.503-0.004-0.503
				s10.436,2.896,14.196,7.441c2.733,3.304,0.558,50.515-0.644,51.435C269.334,228.728,250.573,229.974,250.573,229.974z"/>
		</g>
		<g>
			<path style="fill:#BC574A;" d="M230.755,227.199c0,0,0.757-12.315,4.601-31.491c3.172-15.824,11.343-25.522,11.343-25.522
				s-8.653,1.942-10.849,2.939c-2.196,0.997-9.18,21.112-10.063,34.255s-2.278,15.689-1.588,16.24
				C224.889,224.171,230.755,227.199,230.755,227.199z"/>
		</g>
		<g>
			<path style="fill:#507849;" d="M250.824,174.911c-2.923,0-4.563-1.368-4.644-1.436c-0.127-0.108-0.142-0.298-0.034-0.425
				c0.107-0.126,0.299-0.143,0.426-0.035c0.021,0.018,2.154,1.776,5.827,1.157c3.627-0.613,4.401-2.351,4.408-2.369
				c0.065-0.153,0.238-0.225,0.394-0.163c0.153,0.063,0.228,0.237,0.165,0.391c-0.034,0.084-0.872,2.061-4.867,2.736
				C251.902,174.867,251.343,174.911,250.824,174.911z"/>
		</g>
		<g>
			<path style="fill:#F78F77;" d="M310.834,192.716c0,0,2.281-4.541,4.252-5.572c1.972-1.031,8.74-2.576,9.401-1.038
				c0.66,1.537-3.653,4.19-3.653,4.19s3.664,0.266,8.867,2.243c5.203,1.977,4.849,3.438,4.849,3.438s3.746,0.881,3.857,2.559
				c0.11,1.677-3.537,2.515-3.537,2.515s6.392,2.755,3.44,4.277c-2.952,1.523-10.627,1.44-16.435,0.321s-7.806-1.892-7.806-1.892
				L310.834,192.716z"/>
		</g>
		<g>
			<path d="M328.753,201.629c-0.093,0-0.184-0.043-0.244-0.124l-5.98-8.147c-0.099-0.134-0.069-0.324,0.065-0.422
				c0.134-0.099,0.322-0.071,0.423,0.065l5.98,8.148c0.099,0.135,0.069,0.323-0.065,0.423
				C328.878,201.609,328.816,201.629,328.753,201.629z"/>
		</g>
		<g>
			<path d="M314.365,196.314c-0.626,0-1.054-0.041-1.12-0.047c-0.166-0.017-0.287-0.165-0.271-0.331
				c0.018-0.165,0.176-0.281,0.331-0.271c0.064,0.006,6.267,0.589,7.147-3.048c0.04-0.162,0.197-0.26,0.365-0.223
				c0.162,0.04,0.262,0.203,0.223,0.365C320.278,195.909,316.339,196.314,314.365,196.314z"/>
		</g>
		<g>
			<path style="fill:#BC574A;" d="M257.84,169.387c0,0,9.314,1.673,14.201,7.069c4.887,5.396,14.737,17.54,16.687,19.642
				c1.768,1.905,18.592-7.002,21.724-8.685c0.26-0.14,0.572-0.005,0.648,0.28c0.915,3.404,5.742,21.493,5.354,22.705
				c-0.429,1.339-22.058,14.578-35.188,11.025c-13.13-3.553-18.222-15.19-18.222-15.19L257.84,169.387z"/>
		</g>
		<g>
			<path style="fill:#FFAB50;" d="M286.072,203.014c-0.211,0-0.428-0.046-0.647-0.138c-0.62-0.26-0.816-0.702-0.873-1.026
				c-0.341-1.979,3.53-5.572,3.974-5.975c0.091-0.082,0.224-0.102,0.334-0.049c0.111,0.053,0.179,0.168,0.171,0.292
				c-0.036,0.566-0.402,5.565-2.19,6.673C286.6,202.939,286.34,203.014,286.072,203.014z M288.357,196.87
				c-1.317,1.303-3.416,3.674-3.209,4.877c0.046,0.263,0.208,0.444,0.512,0.572c0.323,0.136,0.597,0.121,0.862-0.043
				C287.62,201.596,288.163,198.631,288.357,196.87z"/>
		</g>
		<g>
			<path style="fill:#FFAB50;" d="M225.594,212.156c-0.203-0.023-0.321-0.174-0.3-0.34c0.082-0.673,2.027-16.54,2.948-19.918
				c0.044-0.161,0.207-0.258,0.371-0.212c0.161,0.044,0.256,0.21,0.212,0.371c-0.91,3.336-2.911,19.668-2.932,19.833
				C225.875,212.043,225.744,212.156,225.594,212.156z"/>
		</g>
		<g>
			<path style="fill:#AF4D04;" d="M222.908,304.227c0,0-0.143,9.904-1.84,11.353c-1.697,1.449-8.753,8.686-12.127,14.522
				c-2.828,4.893,1.515,6.258,1.515,6.258l26.201-6.344l18.518-22.001l-12.214-15.263L222.908,304.227z"/>
		</g>
		<g>
			<path style="fill:#F7C537;" d="M221.827,310.463c0,0,9.708,3.337,8.684,4.652c-1.024,1.315-13.313,6.087-13.717,4.711
				C216.39,318.449,220.417,311.144,221.827,310.463z"/>
		</g>
		<g>
			<ellipse style="fill:#BBAFC0;" cx="173.242" cy="182.376" rx="7.911" ry="0.935"/>
		</g>
		<g>
			<path style="fill:#FFAB50;" d="M214.033,193.777c-0.539,0-1.007-0.201-1.391-0.6c-1.482-1.537-1.188-5.611-1.175-5.784
				c0.009-0.122,0.091-0.226,0.206-0.264c0.116-0.039,0.243-0.004,0.323,0.089c0.64,0.738,3.8,4.496,3.166,5.962
				c-0.111,0.257-0.382,0.568-1.042,0.595C214.092,193.777,214.063,193.777,214.033,193.777z M212.043,188.214
				c-0.013,1.225,0.095,3.569,1.036,4.544c0.283,0.294,0.619,0.428,1.019,0.413c0.418-0.017,0.488-0.178,0.511-0.23
				C214.925,192.209,213.425,189.919,212.043,188.214z"/>
		</g>
	</g>
</g>
<g>
	<path style="fill:#E2DFE5;" d="M335.356,81.116h-23.861v-8.63c0-1.434,1.163-2.597,2.597-2.597h18.667
		c1.434,0,2.597,1.163,2.597,2.597V81.116z"/>
</g>
</svg>
