<svg width="245" height="44" viewBox="0 0 245 44" fill="none" xmlns="http://www.w3.org/2000/svg">
<path d="M44.9894 41.48V43H25.2294V41.48H28.6494L18.5414 23.012L15.3494 27.04V41.48H19.1494V43H0.149375V41.48H3.94938V1.96H0.149375V0.44H19.1494V1.96H15.3494V24.38L32.9814 1.96H25.9894V0.44H41.4934V1.96H35.0334L26.0654 13.36L41.7214 41.48H44.9894ZM61.3027 38.44C62.4173 40.9733 64.3427 42.24 67.0787 42.24C69.8147 42.24 71.7653 40.948 72.9307 38.364C74.096 35.78 74.6787 31.524 74.6787 25.596C74.6787 19.6173 74.096 15.336 72.9307 12.752C71.7653 10.1173 69.8147 8.8 67.0787 8.8C64.3427 8.8 62.4173 10.1173 61.3027 12.752C60.188 15.336 59.6307 19.6173 59.6307 25.596C59.6307 31.5747 60.188 35.856 61.3027 38.44ZM66.9267 43.76C62.1133 43.76 57.756 42.1893 53.8547 39.048C49.9533 35.9067 48.0027 31.448 48.0027 25.672C48.0027 22.5813 48.56 19.82 49.6747 17.388C50.84 14.956 52.36 13.0307 54.2347 11.612C56.16 10.1933 58.212 9.12933 60.3907 8.42C62.5693 7.66 64.7987 7.28 67.0787 7.28C69.3587 7.28 71.588 7.66 73.7667 8.42C75.996 9.12933 78.048 10.1933 79.9227 11.612C81.848 13.0307 83.3933 14.956 84.5587 17.388C85.724 19.82 86.3067 22.556 86.3067 25.596C86.3067 28.636 85.724 31.3467 84.5587 33.728C83.3933 36.1093 81.848 38.0093 79.9227 39.428C76.072 42.316 71.74 43.76 66.9267 43.76ZM104.201 38.44C105.316 40.9733 107.241 42.24 109.977 42.24C112.713 42.24 114.664 40.948 115.829 38.364C116.994 35.78 117.577 31.524 117.577 25.596C117.577 19.6173 116.994 15.336 115.829 12.752C114.664 10.1173 112.713 8.8 109.977 8.8C107.241 8.8 105.316 10.1173 104.201 12.752C103.086 15.336 102.529 19.6173 102.529 25.596C102.529 31.5747 103.086 35.856 104.201 38.44ZM109.825 43.76C105.012 43.76 100.654 42.1893 96.7531 39.048C92.8518 35.9067 90.9011 31.448 90.9011 25.672C90.9011 22.5813 91.4584 19.82 92.5731 17.388C93.7384 14.956 95.2584 13.0307 97.1331 11.612C99.0584 10.1933 101.11 9.12933 103.289 8.42C105.468 7.66 107.697 7.28 109.977 7.28C112.257 7.28 114.486 7.66 116.665 8.42C118.894 9.12933 120.946 10.1933 122.821 11.612C124.746 13.0307 126.292 14.956 127.457 17.388C128.622 19.82 129.205 22.556 129.205 25.596C129.205 28.636 128.622 31.3467 127.457 33.728C126.292 36.1093 124.746 38.0093 122.821 39.428C118.97 42.316 114.638 43.76 109.825 43.76ZM198.4 41.48H202.2V43H183.2V41.48H187V20.2C187 16.6027 186.468 14.044 185.404 12.524C184.34 11.004 182.744 10.244 180.616 10.244C179.4 10.244 178.133 10.5987 176.816 11.308C175.498 12.0173 174.409 13.0053 173.548 14.272C174.156 16.096 174.46 18.6293 174.46 21.872V41.48H178.26V43H158.5V41.48H163.06V20.2C163.06 16.6027 162.528 14.044 161.464 12.524C160.4 11.004 158.804 10.244 156.676 10.244C153.788 10.244 151.482 11.764 149.76 14.804V41.48H153.56V43H134.56V41.48H138.36V9.56H134.56V8.04H149.76V11.992C150.722 10.6747 152.217 9.56 154.244 8.648C156.321 7.68533 158.55 7.204 160.932 7.204C166.961 7.204 170.888 8.90133 172.712 12.296C174.029 10.6747 175.777 9.43333 177.956 8.572C180.134 7.66 182.44 7.204 184.872 7.204C193.89 7.204 198.4 12.0933 198.4 21.872V41.48ZM244.377 41.48C243.87 41.9867 242.907 42.4427 241.489 42.848C240.07 43.2027 238.423 43.38 236.549 43.38C232.394 43.38 229.785 42.1387 228.721 39.656C226.187 42.2907 222.311 43.608 217.093 43.608C214.306 43.608 212.001 42.9747 210.177 41.708C208.403 40.3907 207.517 38.4653 207.517 35.932C207.517 32.5373 208.834 29.928 211.469 28.104C214.103 26.2293 218.714 24.912 225.301 24.152L228.341 23.772V20.048C228.341 15.64 228.011 12.676 227.353 11.156C226.694 9.636 225.377 8.876 223.401 8.876C221.475 8.876 220.234 9.15466 219.677 9.712C219.119 10.2187 218.917 10.8267 219.069 11.536C219.221 12.1947 219.474 13.0813 219.829 14.196C220.183 15.3107 220.361 16.1973 220.361 16.856C220.361 18.4267 219.803 19.7693 218.689 20.884C217.625 21.948 216.307 22.48 214.737 22.48C213.217 22.48 211.899 21.948 210.785 20.884C209.67 19.7693 209.113 18.4267 209.113 16.856C209.113 14.272 210.43 12.068 213.065 10.244C215.75 8.36933 219.727 7.432 224.997 7.432C230.317 7.432 234.091 8.47067 236.321 10.548C238.601 12.6253 239.741 16.2987 239.741 21.568V35.248C239.741 37.9333 240.07 39.6307 240.729 40.34C241.387 40.9987 242.603 41.1253 244.377 40.72V41.48ZM218.081 34.412C218.334 36.3373 219.043 37.832 220.209 38.896C221.374 39.9093 222.717 40.416 224.237 40.416C225.807 40.416 227.175 39.656 228.341 38.136V25.216L225.605 25.596C223.274 25.9 221.374 26.7867 219.905 28.256C218.486 29.7253 217.878 31.7773 218.081 34.412Z" fill="url(#paint0_linear_124_246)"/>
<defs>
<linearGradient id="paint0_linear_124_246" x1="252.5" y1="13" x2="-12.5" y2="14" gradientUnits="userSpaceOnUse">
<stop offset="0.268564" stop-color="#FFD130"/>
</linearGradient>
</defs>
</svg>
